<svg width="50" height="50" viewBox="0 0 50 50" fill="none" xmlns="http://www.w3.org/2000/svg">
<g id="accountability 1" clip-path="url(#clip0_579_2542)">
<g id="Group">
<g id="Group_2">
<path id="Vector" d="M11.3635 33.7079H4.09076C3.33319 33.7079 2.65137 33.026 2.65137 32.2685V30.0715C2.65137 29.617 2.9544 29.3139 3.40894 29.3139C3.86349 29.3139 4.16652 29.617 4.16652 30.0715V32.1927H11.2877V24.3897L9.77258 22.8745H4.16652V27.1927C4.16652 27.6473 3.86349 27.9503 3.40894 27.9503C2.9544 27.9503 2.65137 27.6473 2.65137 27.1927V22.7988C2.65137 22.0412 3.33319 21.3594 4.09076 21.3594H10.0756C10.3029 21.3594 10.4544 21.4351 10.6059 21.5866L12.5756 23.5563C12.7271 23.7079 12.8029 23.8594 12.8029 24.0866V32.2685C12.8029 33.026 12.1211 33.7079 11.3635 33.7079Z" fill="white"/>
</g>
<g id="Group_3">
<path id="Vector_2" d="M3.93931 30.8314H3.03022C1.8181 30.8314 0.833252 29.8466 0.833252 28.6345C0.833252 27.4223 1.8181 26.4375 3.03022 26.4375H3.86356C5.07568 26.4375 6.06052 27.4223 6.06052 28.6345C6.06052 29.8466 5.07568 30.8314 3.93931 30.8314ZM3.03022 27.9527C2.57568 27.9527 2.3484 28.3314 2.3484 28.6345C2.3484 29.089 2.72719 29.3163 3.03022 29.3163H3.93931C4.24234 29.3163 4.54537 29.0133 4.54537 28.6345C4.54537 28.1799 4.16659 27.9527 3.86356 27.9527H3.03022Z" fill="white"/>
</g>
<g id="Group_4">
<g id="Group_5">
<path id="Vector_3" d="M14.6211 14.4704C12.0454 14.4704 10.0757 11.7431 10.0757 9.31889C10.0757 6.81889 12.1211 4.77344 14.6211 4.77344C17.1211 4.77344 19.1666 6.81889 19.1666 9.31889C19.1666 11.7431 17.1969 14.4704 14.6211 14.4704ZM14.6211 6.28859C12.9545 6.28859 11.5908 7.65223 11.5908 9.31889C11.5908 10.9856 12.9545 12.9553 14.6211 12.9553C16.2878 12.9553 17.6514 10.9856 17.6514 9.31889C17.6514 7.65223 16.2878 6.28859 14.6211 6.28859Z" fill="white"/>
</g>
<g id="Group_6">
<path id="Vector_4" d="M16.8938 49.2465C15.2271 49.2465 13.9392 47.8828 13.9392 46.2919V31.9737C13.9392 31.5192 14.2422 31.2161 14.6968 31.2161C15.1513 31.2161 15.4544 31.5192 15.4544 31.9737V46.2919C15.4544 47.0495 16.1362 47.7313 16.8938 47.7313C17.6513 47.7313 18.3331 47.0495 18.3331 46.2919V23.6404C18.3331 23.1858 18.6362 22.8828 19.0907 22.8828C19.5453 22.8828 19.8483 23.1858 19.8483 23.6404V46.2919C19.8483 47.8828 18.5604 49.2465 16.8938 49.2465Z" fill="white"/>
</g>
<g id="Group_7">
<path id="Vector_5" d="M12.424 49.1655C10.7574 49.1655 9.46948 47.8018 9.46948 46.2109V32.9534C9.46948 32.4988 9.77251 32.1958 10.2271 32.1958C10.6816 32.1958 10.9846 32.4988 10.9846 32.9534V46.2109C10.9846 46.9685 11.6665 47.6503 12.424 47.6503C13.1816 47.6503 13.8634 46.9685 13.8634 46.2109V31.9685C13.8634 31.514 14.1665 31.2109 14.621 31.2109C15.0755 31.2109 15.3786 31.514 15.3786 31.9685V46.2109C15.3786 47.8776 14.0907 49.1655 12.424 49.1655Z" fill="white"/>
</g>
<g id="Group_8">
<path id="Vector_6" d="M19.0908 33.1832C18.6362 33.1832 18.3332 32.8802 18.3332 32.4257C18.3332 31.9711 18.6362 31.6681 19.0908 31.6681C20.3787 31.6681 21.515 30.5317 21.515 29.2438V23.0317C21.515 20.456 19.5453 18.4863 16.9696 18.4863H11.8938C9.84837 18.4863 8.03018 19.8499 7.42412 21.8954C7.27261 22.2741 6.89382 22.5014 6.51503 22.4257C6.13625 22.2741 5.90897 21.8954 5.98473 21.5166C6.81806 18.8651 9.16655 17.0469 11.9696 17.0469H17.0453C20.4544 17.0469 23.1059 19.6984 23.1059 23.1075V29.3196C23.0302 31.4408 21.2878 33.1832 19.0908 33.1832Z" fill="white"/>
</g>
</g>
<g id="Group_9">
<path id="Vector_7" d="M37.5758 23.7112C34.697 23.7112 31.9697 22.6506 29.8485 20.6809L24.5455 21.2112C24.2424 21.2112 24.0152 21.1354 23.8636 20.8324C23.7121 20.6051 23.7121 20.3021 23.8636 19.9991L26.6667 15.3021C26.5152 14.696 26.3636 14.09 26.2879 13.4082C25.5303 7.12027 30.1515 1.51421 36.4394 0.832393C42.6515 0.150575 48.3333 4.77179 49.0909 10.9839C49.7727 17.3475 45.1515 23.0294 38.8636 23.6354C38.4091 23.7112 38.0303 23.7112 37.5758 23.7112ZM30.0758 19.09C30.303 19.09 30.4545 19.1657 30.6061 19.3172C32.7273 21.4385 35.6818 22.4991 38.7121 22.1203C44.1667 21.59 48.1818 16.6657 47.5758 11.1354C46.9697 5.75664 42.0455 1.81724 36.5909 2.34754C31.1364 2.87785 27.1212 7.80209 27.7273 13.3324C27.803 13.9385 27.9545 14.6203 28.1818 15.2263C28.2576 15.4536 28.2576 15.6809 28.1061 15.8324L25.9091 19.5445L30 19.09H30.0758Z" fill="white"/>
</g>
<g id="Group_10">
<path id="Vector_8" d="M35.1514 18.4844C34.9241 18.4844 34.7726 18.4086 34.6211 18.2571L29.8484 13.4844C29.6969 13.3329 29.6211 13.1813 29.6211 12.9541C29.6211 12.7268 29.6969 12.5753 29.8484 12.4238L32.0453 10.2268C32.3484 9.92377 32.8029 9.92377 33.1059 10.2268L35.1514 12.2723L41.1362 6.21165C41.2878 6.06013 41.4393 5.98438 41.6666 5.98438C41.8938 5.98438 42.0453 6.06013 42.1969 6.21165L44.3938 8.40862C44.6969 8.71165 44.6969 9.16619 44.3938 9.46922L35.6817 18.2571C35.5302 18.4086 35.3787 18.4844 35.1514 18.4844ZM31.4393 12.9541L35.1514 16.6662L42.8029 8.93892L41.6666 7.80256L35.6817 13.8632C35.5302 14.0147 35.3787 14.0904 35.1514 14.0904C34.9241 14.0904 34.7726 14.0147 34.6211 13.8632L32.5756 11.8177L31.4393 12.9541Z" fill="white"/>
</g>
<g id="Group_11">
<path id="Vector_9" d="M32.5756 31.134H27.8787C27.4241 31.134 27.1211 30.831 27.1211 30.3764V25.6795C27.1211 25.2249 27.4241 24.9219 27.8787 24.9219H32.5756C33.0302 24.9219 33.3332 25.2249 33.3332 25.6795V30.3764C33.3332 30.831 33.0302 31.134 32.5756 31.134ZM28.6362 29.6188H31.8181V26.437H28.6362V29.6188Z" fill="white"/>
</g>
<g id="Group_12">
<path id="Vector_10" d="M32.5756 39.3918H27.8787C27.4241 39.3918 27.1211 39.0888 27.1211 38.6342V33.9373C27.1211 33.4827 27.4241 33.1797 27.8787 33.1797H32.5756C33.0302 33.1797 33.3332 33.4827 33.3332 33.9373V38.6342C33.3332 39.0888 33.0302 39.3918 32.5756 39.3918ZM28.6362 37.8767H31.8181V34.6948H28.6362V37.8767Z" fill="white"/>
</g>
<g id="Group_13">
<path id="Vector_11" d="M32.5756 47.6496H27.8787C27.4241 47.6496 27.1211 47.3466 27.1211 46.892V42.1951C27.1211 41.7405 27.4241 41.4375 27.8787 41.4375H32.5756C33.0302 41.4375 33.3332 41.7405 33.3332 42.1951V46.892C33.3332 47.3466 33.0302 47.6496 32.5756 47.6496ZM28.6362 46.1345H31.8181V42.9527H28.6362V46.1345Z" fill="white"/>
</g>
<g id="Group_14">
<path id="Vector_12" d="M38.9393 30.906C38.712 30.906 38.5605 30.8303 38.409 30.6787L36.5908 28.8606C36.2878 28.5575 36.2878 28.103 36.5908 27.8C36.8938 27.4969 37.3484 27.4969 37.6514 27.8L38.9393 29.0878L42.6514 25.3757C42.9544 25.0727 43.409 25.0727 43.712 25.3757C44.015 25.6787 44.015 26.1333 43.712 26.4363L39.4696 30.6787C39.3181 30.8303 39.1666 30.906 38.9393 30.906Z" fill="white"/>
</g>
<g id="Group_15">
<path id="Vector_13" d="M38.9393 39.1638C38.712 39.1638 38.5605 39.0881 38.409 38.9366L36.5908 37.1184C36.2878 36.8153 36.2878 36.3608 36.5908 36.0578C36.8938 35.7547 37.3484 35.7547 37.6514 36.0578L38.9393 37.3456L42.6514 33.6335C42.9544 33.3305 43.409 33.3305 43.712 33.6335C44.015 33.9366 44.015 34.3911 43.712 34.6941L39.4696 38.9366C39.3181 39.0881 39.1666 39.1638 38.9393 39.1638Z" fill="white"/>
</g>
<g id="Group_16">
<g id="Group_17">
<path id="Vector_14" d="M42.4241 47.5005C42.1969 47.5005 42.0453 47.4247 41.8938 47.2732L37.3484 42.8035C37.0453 42.5005 37.0453 42.0459 37.3484 41.7429C37.6514 41.4399 38.1059 41.4399 38.409 41.7429L42.9544 46.2126C43.2575 46.5156 43.2575 46.9702 42.9544 47.2732C42.8029 47.4247 42.6514 47.5005 42.4241 47.5005Z" fill="white"/>
</g>
<g id="Group_18">
<path id="Vector_15" d="M37.8787 47.5005C37.6514 47.5005 37.4999 47.4247 37.3484 47.2732C37.0453 46.9702 37.0453 46.5156 37.3484 46.2126L41.8938 41.7429C42.1969 41.4399 42.6514 41.4399 42.9544 41.7429C43.2575 42.0459 43.2575 42.5005 42.9544 42.8035L38.409 47.2732C38.2575 47.4247 38.1059 47.5005 37.8787 47.5005Z" fill="white"/>
</g>
</g>
</g>
</g>
<defs>
<clipPath id="clip0_579_2542">
<rect width="50" height="50" fill="white"/>
</clipPath>
</defs>
</svg>
