<svg width="101" height="101" viewBox="0 0 101 101" fill="none" xmlns="http://www.w3.org/2000/svg">
<g id="bank 1" clip-path="url(#clip0_327_5344)">
<g id="Group">
<g id="Group_2">
<g id="Group_3">
<path id="Vector" fill-rule="evenodd" clip-rule="evenodd" d="M20.084 68.5879V86.326H24.5637C25.2244 86.326 25.7699 86.7309 25.7699 87.2271V92.9078H41.683V87.2271C41.683 86.7309 42.2285 86.326 42.8971 86.326H47.3768V68.5879H42.8971C42.2285 68.5879 41.683 68.183 41.683 67.6924V62.0059H25.7699V67.6924C25.7699 68.1828 25.2244 68.5879 24.5637 68.5879H20.084Z" fill="#B6B1B7"/>
</g>
<g id="Group_4">
<path id="Vector_2" fill-rule="evenodd" clip-rule="evenodd" d="M52.9854 68.5879V86.326H57.6729C58.3725 86.326 58.9432 86.7309 58.9432 87.2271V92.9078H75.5949V87.2271C75.5949 86.7309 76.1658 86.326 76.8652 86.326H81.5527V68.5879H76.8652C76.1656 68.5879 75.5949 68.183 75.5949 67.6924V62.0059H58.9432V67.6924C58.9432 68.1828 58.3723 68.5879 57.6729 68.5879H52.9854Z" fill="#B6B1B7"/>
</g>
<g id="Group_5">
<path id="Vector_3" fill-rule="evenodd" clip-rule="evenodd" d="M7.2832 30.1521V55.8447H93.7184V30.1521L50.4979 5.19922L7.2832 30.1521Z" fill="#ECEAEC"/>
</g>
<g id="Group_6">
<path id="Vector_4" fill-rule="evenodd" clip-rule="evenodd" d="M1.0269 33.2148C2.11616 35.1027 4.54585 35.7529 6.43374 34.6635L7.28354 34.173L50.4982 9.21992L93.7185 34.173L94.5683 34.6635C96.4503 35.7529 98.8857 35.1027 99.9695 33.2148C101.059 31.3326 100.409 28.8973 98.5208 27.8078L52.6712 1.3377C52.0439 0.972656 51.274 0.795898 50.4982 0.795898C49.7283 0.795898 48.9525 0.972656 48.3251 1.3377L2.47553 27.8078C0.593503 28.8973 -0.0623559 31.3326 1.0269 33.2148Z" fill="#9FD4FE"/>
</g>
<g id="Group_7">
<path id="Vector_5" fill-rule="evenodd" clip-rule="evenodd" d="M77.4014 65.5371H90.6789V89.3779H77.4014V65.5371Z" fill="#FFE07D"/>
</g>
<g id="Group_8">
<path id="Vector_6" fill-rule="evenodd" clip-rule="evenodd" d="M43.8594 65.5371H57.1369V89.3779H43.8594V65.5371Z" fill="#FFE07D"/>
</g>
<g id="Group_9">
<path id="Vector_7" fill-rule="evenodd" clip-rule="evenodd" d="M10.3174 65.5371H23.6006V89.3779H10.3174V65.5371Z" fill="#FFE07D"/>
</g>
<g id="Group_10">
<path id="Vector_8" fill-rule="evenodd" clip-rule="evenodd" d="M6.09766 92.908L15.8256 96.5926L27.8219 92.908V87.2273C27.8219 86.7311 27.417 86.3262 26.9264 86.3262H23.6014H10.3182H6.99316C6.50273 86.3262 6.09766 86.7311 6.09766 87.2273V92.908Z" fill="#ECEAEC"/>
</g>
<g id="Group_11">
<path id="Vector_9" fill-rule="evenodd" clip-rule="evenodd" d="M73.1748 92.908L84.9062 96.5926L94.9047 92.908V87.2273C94.9047 86.7311 94.4998 86.3262 94.0035 86.3262H90.6785H77.401H74.076C73.5799 86.3262 73.1748 86.7311 73.1748 87.2273V92.908Z" fill="#ECEAEC"/>
</g>
<g id="Group_12">
<path id="Vector_10" fill-rule="evenodd" clip-rule="evenodd" d="M39.6328 92.908L50.5006 95.5396L61.3627 92.908V87.2273C61.3627 86.7311 60.9578 86.3262 60.4615 86.3262H57.1365H43.859H40.534C40.0377 86.3262 39.6328 86.7311 39.6328 87.2273V92.908Z" fill="#ECEAEC"/>
</g>
<g id="Group_13">
<path id="Vector_11" fill-rule="evenodd" clip-rule="evenodd" d="M1.42598 100.277H99.5758C100.083 100.277 100.5 99.8609 100.5 99.3533V93.8322C100.5 93.3246 100.083 92.9082 99.5758 92.9082H94.9047H73.1748H61.3631H39.633H27.8213H6.09707H1.42598C0.918359 92.9082 0.501953 93.3246 0.501953 93.8322V99.3533C0.501953 99.8611 0.918359 100.277 1.42598 100.277Z" fill="#9FD4FE"/>
</g>
<g id="Group_14">
<path id="Vector_12" fill-rule="evenodd" clip-rule="evenodd" d="M45.8896 22.9715C45.8896 25.6408 48.0512 27.8023 50.7205 27.8023C53.384 27.8023 55.5514 25.6406 55.5514 22.9715C55.5514 20.3023 53.384 18.1406 50.7205 18.1406C48.0514 18.1404 45.8896 20.3021 45.8896 22.9715Z" fill="#FFE07D"/>
</g>
<g id="Group_15">
<path id="Vector_13" fill-rule="evenodd" clip-rule="evenodd" d="M50.4979 9.21973L7.2832 34.1728V39.7852L50.4979 14.832L93.7184 39.7852V34.1728L50.4979 9.21973Z" fill="#DAD8DB"/>
</g>
<g id="Group_16">
<path id="Vector_14" fill-rule="evenodd" clip-rule="evenodd" d="M50.7205 18.1406C48.0514 18.1406 45.8896 20.3023 45.8896 22.9715C45.8896 23.5248 45.9809 24.0494 46.152 24.5457C46.8648 22.7719 48.6045 21.5229 50.6291 21.5229C52.7451 21.5229 54.5473 22.8859 55.1975 24.7795C55.4256 24.2205 55.5512 23.6104 55.5512 22.9715C55.5514 20.3023 53.384 18.1406 50.7205 18.1406Z" fill="#FFC269"/>
</g>
<g id="Group_17">
<path id="Vector_15" fill-rule="evenodd" clip-rule="evenodd" d="M10.3174 68.5879H23.6006V73.4131H10.3174V68.5879Z" fill="#FFC269"/>
</g>
<g id="Group_18">
<path id="Vector_16" fill-rule="evenodd" clip-rule="evenodd" d="M43.8594 68.5879H57.1369V73.4131H43.8594V68.5879Z" fill="#FFC269"/>
</g>
<g id="Group_19">
<path id="Vector_17" fill-rule="evenodd" clip-rule="evenodd" d="M77.4014 68.5879H90.6789V73.4131H77.4014V68.5879Z" fill="#FFC269"/>
</g>
<g id="Group_20">
<path id="Vector_18" fill-rule="evenodd" clip-rule="evenodd" d="M10.3182 68.5881H23.6014H26.9264C27.4168 68.5881 27.8219 68.1832 27.8219 67.6926V60.7988H6.09766V67.6926C6.09766 68.183 6.50254 68.5881 6.99316 68.5881H10.3182Z" fill="#ECEAEC"/>
</g>
<g id="Group_21">
<path id="Vector_19" fill-rule="evenodd" clip-rule="evenodd" d="M43.8592 68.5881H57.1367H60.4617C60.958 68.5881 61.3629 68.1832 61.3629 67.6926V60.7988H39.6328V67.6926C39.6328 68.183 40.0377 68.5881 40.534 68.5881H43.8592Z" fill="#ECEAEC"/>
</g>
<g id="Group_22">
<path id="Vector_20" fill-rule="evenodd" clip-rule="evenodd" d="M74.076 68.5881H77.401H90.6785H94.0035C94.4996 68.5881 94.9047 68.1832 94.9047 67.6926V60.7988H73.1748V67.6926C73.1748 68.1832 73.5797 68.5881 74.076 68.5881Z" fill="#ECEAEC"/>
</g>
<g id="Group_23">
<path id="Vector_21" fill-rule="evenodd" clip-rule="evenodd" d="M6.09766 62.0068H27.8219V65.5373H6.09766V62.0068Z" fill="#DAD8DB"/>
</g>
<g id="Group_24">
<path id="Vector_22" fill-rule="evenodd" clip-rule="evenodd" d="M39.6328 62.0068H61.3627V65.5373H39.6328V62.0068Z" fill="#DAD8DB"/>
</g>
<g id="Group_25">
<path id="Vector_23" fill-rule="evenodd" clip-rule="evenodd" d="M73.1748 62.0068H94.9047V65.5373H73.1748V62.0068Z" fill="#DAD8DB"/>
</g>
<g id="Group_26">
<path id="Vector_24" fill-rule="evenodd" clip-rule="evenodd" d="M6.09707 62.0068H27.8213H39.633H61.3631H73.1748H94.9047H99.5758C100.083 62.0068 100.5 61.5904 100.5 61.0828V55.5617C100.5 55.0541 100.083 54.6377 99.5758 54.6377H93.7184H7.2834H1.42598C0.918359 54.6377 0.501953 55.0541 0.501953 55.5617V61.0828C0.501953 61.5904 0.918359 62.0068 1.42598 62.0068H6.09707Z" fill="#9FD4FE"/>
</g>
</g>
<g id="Group_27">
<path id="Vector_25" d="M32.2963 40.326C32.7104 39.6748 32.9537 38.9049 32.9537 38.0777C32.9537 35.7588 31.067 33.8721 28.748 33.8721H25.3439C24.5104 33.8721 23.835 34.5477 23.835 35.3811V40.7773V40.7861V47.1002C23.835 47.5016 23.9949 47.8865 24.2795 48.1695C24.5623 48.4512 24.9449 48.6092 25.3441 48.6092H25.3508C25.3508 48.6092 28.4801 48.5953 29.3428 48.5953C31.9141 48.5953 34.0061 46.5033 34.0061 43.9318C34.0059 42.4805 33.3393 41.182 32.2963 40.326ZM28.748 36.8902C29.4029 36.8902 29.9355 37.4229 29.9355 38.0777C29.9355 38.7326 29.4029 39.2652 28.748 39.2652C28.499 39.2652 26.8531 39.2684 26.8531 39.2684V36.8902H28.748ZM29.3426 45.5771C28.8834 45.5771 27.784 45.5811 26.8531 45.5848V42.2889C27.0756 42.2881 29.3426 42.2863 29.3426 42.2863C30.2498 42.2863 30.9879 43.0244 30.9879 43.9318C30.9879 44.8391 30.2498 45.5771 29.3426 45.5771Z" fill="#6F6571"/>
<path id="Vector_26" d="M44.4778 35.0129C44.4727 34.9994 44.4674 34.9859 44.4621 34.9725C44.1875 34.3039 43.5434 33.8721 42.8207 33.8721C42.8203 33.8721 42.8197 33.8721 42.8197 33.8721C42.0965 33.8725 41.4522 34.3053 41.1781 34.9746C41.1735 34.9859 41.169 34.9975 41.1647 35.0092L36.7643 46.5631C36.4676 47.342 36.8586 48.2139 37.6375 48.5104C38.4154 48.807 39.2881 48.4162 39.5848 47.6373L40.3106 45.7316H45.2977L46.0153 47.633C46.2432 48.2373 46.8176 48.6098 47.4272 48.6098C47.6041 48.6098 47.7844 48.5785 47.9598 48.5123C48.7395 48.218 49.133 47.3473 48.8387 46.5676L44.4778 35.0129ZM41.4596 42.7135L42.8151 39.1547L44.1582 42.7135H41.4596Z" fill="#6F6571"/>
<path id="Vector_27" d="M61.6871 33.8721C61.6822 33.8721 61.6771 33.8721 61.6723 33.8723C60.8387 33.8803 60.1697 34.5625 60.1777 35.3957L60.2455 42.3932L54.8262 34.5455C54.451 34.002 53.7666 33.7662 53.1352 33.9623C52.5049 34.159 52.0752 34.7426 52.0752 35.4029V47.1C52.0752 47.9334 52.7508 48.609 53.5842 48.609C54.4176 48.609 55.0932 47.9334 55.0932 47.1V40.2436L60.2516 47.7133C60.693 48.3514 61.4307 48.6229 62.1303 48.4043C62.8439 48.1814 63.3051 47.5145 63.3051 46.6904L63.1957 35.3664C63.1877 34.5381 62.5137 33.8721 61.6871 33.8721Z" fill="#6F6571"/>
<path id="Vector_28" d="M77.0492 46.0143L71.7781 40.9289L76.6014 36.4955C77.215 35.9314 77.2553 34.9768 76.6912 34.3631C76.1275 33.7496 75.1725 33.7092 74.559 34.2734L70.7065 37.8146V35.2346C70.7065 34.4012 70.0309 33.7256 69.1975 33.7256C68.3641 33.7256 67.6885 34.4012 67.6885 35.2346V47.1002C67.6885 47.9336 68.3641 48.6092 69.1975 48.6092C70.0309 48.6092 70.7065 47.9336 70.7065 47.1002V44.0885L74.9537 48.1863C75.2465 48.4689 75.6242 48.6094 76.0012 48.6094C76.3965 48.6094 76.7912 48.4551 77.0873 48.148C77.6662 47.5482 77.649 46.5928 77.0492 46.0143Z" fill="#6F6571"/>
</g>
</g>
</g>
<defs>
<clipPath id="clip0_327_5344">
<rect width="100" height="100" fill="white" transform="translate(0.5 0.536133)"/>
</clipPath>
</defs>
</svg>
