<svg width="50" height="50" viewBox="0 0 50 50" fill="none" xmlns="http://www.w3.org/2000/svg">
<g id="communities 1" clip-path="url(#clip0_579_2523)">
<path id="Vector" d="M26.8117 25.3123C27.5858 24.907 28.2016 24.254 28.5609 23.4575C28.9201 22.6611 29.0019 21.7672 28.7932 20.9187C28.5846 20.0703 28.0975 19.3163 27.4099 18.7773C26.7222 18.2382 25.8737 17.9453 25 17.9453C24.1263 17.9453 23.2778 18.2382 22.5901 18.7773C21.9025 19.3163 21.4154 20.0703 21.2068 20.9187C20.9981 21.7672 21.0799 22.6611 21.4391 23.4575C21.7984 24.254 22.4142 24.907 23.1883 25.3123C22.1204 25.6881 21.1952 26.3857 20.5403 27.3092C19.8853 28.2326 19.5328 29.3364 19.5312 30.4685C19.5312 30.6757 19.6136 30.8744 19.7601 31.0209C19.9066 31.1675 20.1053 31.2498 20.3125 31.2498H29.6875C29.8947 31.2498 30.0934 31.1675 30.2399 31.0209C30.3864 30.8744 30.4688 30.6757 30.4688 30.4685C30.4672 29.3364 30.1147 28.2326 29.4597 27.3092C28.8048 26.3857 27.8796 25.6881 26.8117 25.3123ZM25 19.531C25.4636 19.531 25.9167 19.6685 26.3021 19.926C26.6875 20.1835 26.9879 20.5496 27.1653 20.9779C27.3427 21.4061 27.3891 21.8774 27.2987 22.332C27.2083 22.7867 26.9851 23.2043 26.6573 23.532C26.3295 23.8598 25.9119 24.083 25.4572 24.1735C25.0026 24.2639 24.5314 24.2175 24.1031 24.0401C23.6748 23.8627 23.3088 23.5623 23.0512 23.1769C22.7937 22.7915 22.6562 22.3383 22.6562 21.8748C22.6562 21.2532 22.9032 20.657 23.3427 20.2175C23.7823 19.7779 24.3784 19.531 25 19.531ZM21.1719 29.6873C21.3512 28.8042 21.8303 28.0103 22.5279 27.4401C23.2256 26.8699 24.0989 26.5583 25 26.5583C25.9011 26.5583 26.7744 26.8699 27.4721 27.4401C28.1697 28.0103 28.6488 28.8042 28.8281 29.6873H21.1719Z" fill="white"/>
<path id="Vector_2" d="M41.4063 33.5969C39.6045 33.5955 37.8582 34.2199 36.4657 35.3633L32.7047 31.6023C34.1911 29.8717 35.048 27.689 35.136 25.4094L43.1141 25.1141C43.3366 25.8353 43.8143 26.4506 44.4578 26.845C45.1012 27.2394 45.8664 27.3858 46.61 27.2567C47.3536 27.1277 48.0247 26.732 48.4976 26.1439C48.9706 25.5557 49.213 24.8153 49.1794 24.0614C49.1459 23.3074 48.8387 22.5915 48.3154 22.0477C47.792 21.5038 47.0885 21.1694 46.3363 21.1069C45.5842 21.0444 44.8351 21.2581 44.2292 21.7081C43.6233 22.1581 43.2021 22.8135 43.0446 23.5516L35.0852 23.8461C34.9147 22.3667 34.421 20.9429 33.6391 19.6756C32.8571 18.4083 31.806 17.3284 30.5602 16.5125L32.0532 13.7984C33.1644 14.1863 34.3809 14.1425 35.4614 13.6758C36.5419 13.209 37.4076 12.3533 37.8869 11.2783C38.3662 10.2033 38.4242 8.98749 38.0492 7.87178C37.6743 6.75608 36.8939 5.82195 35.8627 5.25454C34.8315 4.68714 33.6247 4.52787 32.4816 4.80832C31.3385 5.08876 30.3425 5.78844 29.6909 6.76867C29.0394 7.74891 28.7799 8.93816 28.9639 10.1007C29.148 11.2632 29.762 12.3142 30.6844 13.0453L29.1907 15.7609C27.434 14.9565 25.4832 14.6736 23.5704 14.9459C21.6576 15.2182 19.8633 16.0342 18.4008 17.2969L14.6399 13.5359C15.9107 11.9817 16.5355 9.99852 16.3851 7.99654C16.2347 5.99456 15.3205 4.12698 13.8318 2.7801C12.343 1.43322 10.3935 0.710079 8.38649 0.76026C6.3795 0.810441 4.46857 1.6301 3.04897 3.0497C1.62937 4.46931 0.809709 6.38023 0.759527 8.38723C0.709346 10.3942 1.43249 12.3437 2.77937 13.8325C4.12625 15.3213 5.99383 16.2354 7.99581 16.3858C9.99778 16.5362 11.981 15.9114 13.5352 14.6406L17.2961 18.4016C16.3009 19.5506 15.5794 20.9104 15.186 22.3787C14.7926 23.847 14.7376 25.3855 15.0251 26.8781L8.16334 28.725C7.72838 27.881 6.99874 27.226 6.11285 26.8843C5.22696 26.5426 4.24647 26.538 3.35741 26.8714C2.46836 27.2047 1.7326 27.8529 1.28974 28.6927C0.846883 29.5326 0.727742 30.5059 0.954923 31.4278C1.1821 32.3497 1.7398 33.1562 2.52219 33.6941C3.30458 34.2321 4.25723 34.4641 5.19938 34.3462C6.14153 34.2283 7.00763 33.7687 7.63333 33.0545C8.25903 32.3404 8.60081 31.4214 8.59381 30.4719C8.59381 30.3938 8.57506 30.3156 8.56959 30.2375L15.436 28.3891C16.2265 30.6084 17.7611 32.4856 19.779 33.7016L18.1251 37.0031C16.8111 36.5631 15.3793 36.6371 14.1177 37.2103C12.8562 37.7834 11.8585 38.8132 11.3256 40.0923C10.7928 41.3713 10.7642 42.8048 11.2456 44.1041C11.7271 45.4035 12.6828 46.4722 13.9206 47.0952C15.1583 47.7182 16.586 47.8492 17.9164 47.4619C19.2469 47.0746 20.3812 46.1978 21.0912 45.0078C21.8011 43.8178 22.0339 42.4031 21.7428 41.0484C21.4516 39.6936 20.6581 38.4995 19.5219 37.7063L21.1719 34.4047C22.8973 35.112 24.7848 35.3278 26.6253 35.0282C28.4658 34.7286 30.1874 33.9252 31.5993 32.707L35.3602 36.468C34.2392 37.8415 33.6189 39.5556 33.6014 41.3284C33.5839 43.1012 34.1702 44.8272 35.2639 46.2226C36.3576 47.618 37.8936 48.5996 39.6193 49.0061C41.345 49.4125 43.1577 49.2197 44.7592 48.4592C46.3607 47.6987 47.6557 46.4158 48.4313 44.8215C49.207 43.2273 49.4169 41.4165 49.0268 39.6871C48.6366 37.9576 47.6695 36.4124 46.2846 35.3056C44.8996 34.1987 43.1792 33.5961 41.4063 33.5969ZM46.0938 22.6594C46.4028 22.6594 46.7049 22.751 46.9619 22.9227C47.2188 23.0944 47.4191 23.3384 47.5374 23.6239C47.6556 23.9094 47.6866 24.2236 47.6263 24.5267C47.566 24.8298 47.4172 25.1082 47.1987 25.3267C46.9801 25.5453 46.7017 25.6941 46.3986 25.7544C46.0955 25.8146 45.7814 25.7837 45.4959 25.6654C45.2104 25.5472 44.9663 25.3469 44.7946 25.09C44.6229 24.833 44.5313 24.5309 44.5313 24.2219C44.5313 23.8075 44.6959 23.4101 44.989 23.117C45.282 22.824 45.6794 22.6594 46.0938 22.6594ZM33.5938 6.25313C34.2119 6.25313 34.8161 6.43641 35.33 6.77979C35.8439 7.12317 36.2444 7.61123 36.4809 8.18225C36.7175 8.75326 36.7793 9.3816 36.6588 9.98779C36.5382 10.594 36.2406 11.1508 35.8035 11.5878C35.3665 12.0249 34.8097 12.3225 34.2035 12.4431C33.5973 12.5637 32.9689 12.5018 32.3979 12.2653C31.8269 12.0287 31.3388 11.6282 30.9955 11.1143C30.6521 10.6004 30.4688 9.9962 30.4688 9.37813C30.4688 8.54933 30.798 7.75447 31.3841 7.16842C31.9701 6.58237 32.765 6.25313 33.5938 6.25313ZM4.68756 32.8156C4.22401 32.8156 3.77087 32.6782 3.38544 32.4206C3.00001 32.1631 2.69961 31.7971 2.52221 31.3688C2.34482 30.9405 2.29841 30.4693 2.38884 30.0146C2.47927 29.56 2.70249 29.1424 3.03027 28.8146C3.35805 28.4868 3.77567 28.2636 4.23031 28.1732C4.68496 28.0827 5.15621 28.1291 5.58447 28.3065C6.01273 28.4839 6.37878 28.7843 6.63631 29.1698C6.89385 29.5552 7.03131 30.0083 7.03131 30.4719C7.03131 31.0935 6.78438 31.6896 6.34484 32.1292C5.9053 32.5687 5.30916 32.8156 4.68756 32.8156ZM20.3126 42.1906C20.3126 42.9632 20.0835 43.7184 19.6542 44.3608C19.225 45.0032 18.6149 45.5039 17.9012 45.7995C17.1874 46.0952 16.402 46.1725 15.6442 46.0218C14.8865 45.8711 14.1905 45.4991 13.6442 44.9528C13.0979 44.4065 12.7258 43.7104 12.5751 42.9527C12.4244 42.195 12.5017 41.4095 12.7974 40.6958C13.0931 39.982 13.5937 39.3719 14.2361 38.9427C14.8785 38.5135 15.6337 38.2844 16.4063 38.2844C17.4419 38.2856 18.4348 38.6976 19.1671 39.4299C19.8994 40.1622 20.3113 41.155 20.3126 42.1906ZM2.34381 8.59688C2.34138 7.58138 2.58643 6.58058 3.05777 5.68109C3.5291 4.78159 4.21251 4.01049 5.04887 3.43451C5.88523 2.85853 6.84934 2.49502 7.85778 2.37543C8.86622 2.25585 9.88861 2.38378 10.8365 2.74818C11.7844 3.11257 12.6292 3.70245 13.2978 4.46676C13.9664 5.23107 14.4388 6.14679 14.6739 7.1347C14.9091 8.1226 14.9 9.15292 14.6474 10.1365C14.3948 11.1201 13.9063 12.0273 13.2243 12.7797C13.2603 12.6919 13.2797 12.5981 13.2813 12.5031C13.2833 11.8873 13.163 11.2772 12.9276 10.7082C12.6921 10.1392 12.346 9.6226 11.9094 9.18829C11.5981 8.87698 11.2447 8.61085 10.8594 8.39766C11.2817 7.95497 11.5647 7.39807 11.6734 6.79603C11.7821 6.19398 11.7117 5.57328 11.4709 5.01088C11.2301 4.44848 10.8295 3.96912 10.3189 3.63225C9.8082 3.29538 9.20988 3.11581 8.5981 3.11581C7.98633 3.11581 7.38801 3.29538 6.87733 3.63225C6.36666 3.96912 5.9661 4.44848 5.72532 5.01088C5.48454 5.57328 5.41413 6.19398 5.52282 6.79603C5.63151 7.39807 5.91453 7.95497 6.33677 8.39766C5.60124 8.80175 4.98768 9.39589 4.56015 10.1181C4.13263 10.8402 3.90682 11.6639 3.90631 12.5031C3.9079 12.5971 3.92642 12.69 3.96099 12.7773C2.92108 11.6333 2.34454 10.1429 2.34381 8.59688ZM8.59381 7.81563C8.28477 7.81563 7.98268 7.72399 7.72573 7.5523C7.46878 7.38061 7.26851 7.13658 7.15024 6.85107C7.03198 6.56556 7.00104 6.2514 7.06133 5.9483C7.12162 5.64521 7.27043 5.3668 7.48895 5.14828C7.70747 4.92976 7.98588 4.78094 8.28898 4.72065C8.59207 4.66036 8.90624 4.69131 9.19175 4.80957C9.47726 4.92783 9.72129 5.1281 9.89298 5.38505C10.0647 5.642 10.1563 5.9441 10.1563 6.25313C10.1563 6.66753 9.99168 7.06496 9.69866 7.35799C9.40563 7.65101 9.00821 7.81563 8.59381 7.81563ZM8.59381 9.37813C9.28661 9.37813 9.95977 9.60835 10.5075 10.0326C11.0552 10.4568 11.4464 11.0511 11.6196 11.7219H5.56724C5.74132 11.0514 6.13287 10.4576 6.68055 10.0335C7.22823 9.60938 7.90111 9.37889 8.59381 9.37813ZM4.41412 13.2297C4.50119 13.2644 4.59385 13.2829 4.68756 13.2844H12.5001C12.5952 13.2831 12.6893 13.264 12.7774 13.2281C11.6339 14.2684 10.1436 14.8449 8.59771 14.8449C7.05182 14.8449 5.56149 14.2684 4.41802 13.2281L4.41412 13.2297ZM16.4063 25.0031C16.4063 23.3034 16.9103 21.6419 17.8546 20.2287C18.7989 18.8155 20.1411 17.714 21.7114 17.0635C23.2817 16.4131 25.0096 16.2429 26.6766 16.5745C28.3436 16.9061 29.8749 17.7246 31.0768 18.9264C32.2786 20.1283 33.0971 21.6595 33.4287 23.3266C33.7603 24.9936 33.5901 26.7215 32.9396 28.2918C32.2892 29.8621 31.1877 31.2043 29.7745 32.1486C28.3613 33.0929 26.6997 33.5969 25.0001 33.5969C22.7217 33.5942 20.5374 32.6879 18.9263 31.0769C17.3153 29.4658 16.409 27.2815 16.4063 25.0031ZM37.2266 46.0422C37.3137 46.0769 37.4063 46.0954 37.5001 46.0969H45.3126C45.4077 46.0956 45.5018 46.0765 45.5899 46.0406C44.4464 47.0809 42.9561 47.6574 41.4102 47.6574C39.8643 47.6574 38.374 47.0809 37.2305 46.0406L37.2266 46.0422ZM41.4063 40.6281C41.0973 40.6281 40.7952 40.5365 40.5382 40.3648C40.2813 40.1931 40.081 39.9491 39.9627 39.6636C39.8445 39.3781 39.8135 39.0639 39.8738 38.7608C39.9341 38.4577 40.0829 38.1793 40.3015 37.9608C40.52 37.7423 40.7984 37.5934 41.1015 37.5332C41.4046 37.4729 41.7187 37.5038 42.0042 37.6221C42.2898 37.7403 42.5338 37.9406 42.7055 38.1976C42.8772 38.4545 42.9688 38.7566 42.9688 39.0656C42.9688 39.48 42.8042 39.8775 42.5112 40.1705C42.2181 40.4635 41.8207 40.6281 41.4063 40.6281ZM41.4063 42.1906C42.0991 42.1906 42.7723 42.4208 43.32 42.8451C43.8677 43.2694 44.2589 43.8636 44.4321 44.5344H38.3797C38.5538 43.8639 38.9454 43.2701 39.493 42.846C40.0407 42.4219 40.7136 42.1914 41.4063 42.1906ZM46.036 45.5922C46.0723 45.5044 46.0919 45.4106 46.0938 45.3156C46.0958 44.6998 45.9755 44.0897 45.7401 43.5207C45.5046 42.9517 45.1585 42.4351 44.7219 42.0008C44.4106 41.6895 44.0572 41.4234 43.6719 41.2102C44.0942 40.7675 44.3772 40.2106 44.4859 39.6085C44.5946 39.0065 44.5242 38.3858 44.2834 37.8234C44.0426 37.261 43.642 36.7816 43.1314 36.4447C42.6207 36.1079 42.0224 35.9283 41.4106 35.9283C40.7988 35.9283 40.2005 36.1079 39.6898 36.4447C39.1792 36.7816 38.7786 37.261 38.5378 37.8234C38.297 38.3858 38.2266 39.0065 38.3353 39.6085C38.444 40.2106 38.727 40.7675 39.1493 41.2102C38.4137 41.6142 37.8002 42.2084 37.3727 42.9305C36.9451 43.6527 36.7193 44.4764 36.7188 45.3156C36.7204 45.4096 36.7389 45.5025 36.7735 45.5899C35.9611 44.6932 35.4264 43.5801 35.2344 42.3855C35.0423 41.1909 35.2011 39.9662 35.6915 38.8601C36.1819 37.7541 36.9828 36.8141 37.9971 36.1543C39.0113 35.4946 40.1952 35.1434 41.4051 35.1434C42.6151 35.1434 43.799 35.4946 44.8132 36.1543C45.8274 36.8141 46.6283 37.7541 47.1187 38.8601C47.6091 39.9662 47.7679 41.1909 47.5759 42.3855C47.3838 43.5801 46.8492 44.6932 46.0368 45.5899L46.036 45.5922Z" fill="white"/>
</g>
<defs>
<clipPath id="clip0_579_2523">
<rect width="50" height="50" fill="white"/>
</clipPath>
</defs>
</svg>
