<svg width="50" height="50" viewBox="0 0 50 50" fill="none" xmlns="http://www.w3.org/2000/svg">
<g id="data-integration 1" clip-path="url(#clip0_579_2530)">
<g id="Group">
<path id="Vector" d="M11.8653 19.8997H18.5604C19.2665 19.8997 19.841 19.3253 19.841 18.6192V13.8431C19.841 13.0115 19.0289 12.3911 18.2266 12.6076C16.4746 13.0795 14.7493 11.6283 14.8688 9.82979C14.9784 8.18174 16.6172 6.99297 18.2221 7.42227C19.0237 7.63652 19.841 7.02637 19.841 6.19141V1.28047C19.841 0.574414 19.2666 0 18.5604 0H2.8583C1.28223 0 0 1.28525 0 2.86504V5.86191C0 6.2665 0.32793 6.59434 0.732422 6.59434C1.13691 6.59434 1.46484 6.2665 1.46484 5.86191V2.86504C1.46484 2.09297 2.08994 1.46484 2.8583 1.46484H18.3762V5.95371C15.9602 5.45127 13.571 7.26836 13.4072 9.73262C13.2294 12.4062 15.7437 14.6244 18.3762 14.0771V18.4349H10.6964C10.1604 18.4349 9.73975 19.0812 10.0978 19.5893C11.3779 21.4053 9.93408 23.9623 7.72734 23.8134C5.68994 23.6745 4.54834 21.27 5.7332 19.5893C6.09121 19.0812 5.67041 18.4349 5.13457 18.4349H1.46484V8.78643C1.46484 8.38184 1.13691 8.054 0.732422 8.054C0.32793 8.054 0 8.38184 0 8.78643V18.6192C0 19.3253 0.574414 19.8997 1.28047 19.8997H3.96426C3.18486 22.3977 5.01113 25.0966 7.62773 25.2748C10.4768 25.4692 12.7161 22.6292 11.8653 19.8997Z" fill="white"/>
<path id="Vector_2" d="M47.1417 11.6641H31.4395C30.7334 11.6641 30.159 12.2385 30.159 12.9445V17.6183C27.743 17.1154 25.354 18.9321 25.1901 21.3966C25.0124 24.0698 27.5266 26.2893 30.159 25.7403V30.0989H23.3885C22.9686 30.0989 22.5759 30.3049 22.3381 30.65C22.0972 30.9995 22.0441 31.4465 22.1959 31.8456C22.8217 33.4897 21.6515 35.3571 19.8864 35.4773C17.9708 35.6089 16.5129 33.6469 17.2018 31.8427C17.3536 31.4454 17.3007 31 17.0606 30.6512C16.8225 30.3054 16.4292 30.0989 16.0087 30.0989H13.0634C12.3574 30.0989 11.783 30.6733 11.783 31.3794V47.1336C11.783 48.7134 13.0652 49.9986 14.6413 49.9986H47.1418C48.7178 49.9988 50 48.7136 50 47.1338V43.0237C50 42.6191 49.6722 42.2913 49.2676 42.2913C48.863 42.2913 48.5352 42.6191 48.5352 43.0237V47.1338C48.5352 47.9059 47.9102 48.534 47.1417 48.534H31.6239V45.637C31.6239 45.033 30.9575 44.7286 30.5002 45.0178C29.194 45.843 27.3881 44.8434 27.3987 43.2822C27.409 41.7326 29.1733 40.7337 30.5002 41.5721C30.9822 41.8767 31.6239 41.5341 31.6239 40.9528V31.5639H36.5151C37.0937 31.5639 37.4464 30.8949 37.1194 30.4176C36.709 29.8185 36.4896 29.1017 36.4896 28.3746C36.4953 23.6417 43.6639 23.6471 43.6696 28.3746C43.6696 29.1018 43.4501 29.8186 43.0398 30.4176C42.6919 30.9256 43.1114 31.5639 43.6441 31.5639H48.5352V40.1007C48.5352 40.5053 48.863 40.8331 49.2676 40.8331C49.6722 40.8331 50 40.5053 50 40.1007V14.5292C50 12.9493 48.7178 11.6641 47.1417 11.6641ZM30.159 46.7157V48.534H14.6412C13.8728 48.534 13.2477 47.9059 13.2477 47.1338V31.564H15.7489C14.9 34.2838 17.1344 37.1347 19.986 36.939C22.6023 36.7607 24.4293 34.0626 23.6479 31.564H30.159V39.873C28.1859 39.4483 26.175 40.8915 25.9552 42.9029C25.7016 45.2255 27.8508 47.2144 30.159 46.7157ZM44.8357 30.0991C45.0329 29.5519 45.1345 28.9718 45.1345 28.3791C45.1345 21.682 34.9355 21.7483 35.0261 28.4478C35.0336 29.0165 35.1339 29.5731 35.3234 30.0991H31.6239V24.7082C31.5102 24.0889 31.1528 23.8727 30.5515 24.0595C28.7266 25.0156 26.5157 23.5393 26.6517 21.4939C26.7773 19.6064 28.8664 18.417 30.5515 19.2997C31.1528 19.4864 31.5103 19.2702 31.6239 18.6509V13.1289H47.1417C47.9101 13.1289 48.5352 13.7571 48.5352 14.5292V30.0991H44.8357Z" fill="white"/>
<path id="Vector_3" d="M26.709 14.4193C26.709 14.8239 27.0368 15.1518 27.4414 15.1518C27.846 15.1518 28.1738 14.8239 28.1738 14.4193V11.3437L32.4303 7.08721H42.0038C42.3209 8.16348 43.3173 8.95166 44.4949 8.95166C45.9269 8.95166 47.0918 7.78672 47.0918 6.35478C47.0918 4.92285 45.9269 3.75781 44.4949 3.75781C43.3173 3.75781 42.3209 4.546 42.0038 5.62236H32.1269C31.9326 5.62236 31.7464 5.69951 31.6089 5.83682L26.9234 10.5223C26.7861 10.6597 26.709 10.8459 26.709 11.0402V14.4193ZM44.4949 5.22266C45.1191 5.22266 45.627 5.73047 45.627 6.35478C45.627 6.979 45.1191 7.48682 44.4949 7.48682C43.8706 7.48682 43.3628 6.979 43.3628 6.35478C43.3628 5.73047 43.8706 5.22266 44.4949 5.22266Z" fill="white"/>
<path id="Vector_4" d="M23.3797 5.08799V15.5925C23.3797 15.9971 23.7076 16.3249 24.1121 16.3249C24.5166 16.3249 24.8445 15.9971 24.8445 15.5925V5.08799C25.9208 4.771 26.709 3.77461 26.709 2.59697C26.709 1.16504 25.5439 0 24.1121 0C22.6802 0 21.5151 1.16504 21.5151 2.59697C21.5151 3.77461 22.3033 4.7709 23.3797 5.08799ZM24.1121 1.46484C24.7363 1.46484 25.2441 1.97266 25.2441 2.59697C25.2441 3.21543 24.7454 3.71895 24.1291 3.72812C24.1234 3.72803 24.1179 3.72725 24.1121 3.72725C24.1063 3.72725 24.1008 3.72793 24.0951 3.72812C23.4788 3.71895 22.98 3.21543 22.98 2.59697C22.98 1.97266 23.4879 1.46484 24.1121 1.46484Z" fill="white"/>
<path id="Vector_5" d="M18.466 24.3626C18.466 22.9307 17.301 21.7656 15.8691 21.7656C14.4372 21.7656 13.2722 22.9307 13.2722 24.3626C13.2722 25.7945 14.4372 26.9596 15.8691 26.9596C16.3193 26.9596 16.743 26.8442 17.1125 26.6419L18.8964 28.4258V32.0286C18.8964 32.4332 19.2244 32.761 19.6289 32.761C20.0333 32.761 20.3613 32.4332 20.3613 32.0286V28.1224C20.3613 27.9281 20.2841 27.7419 20.1467 27.6044L18.1483 25.606C18.3507 25.2364 18.466 24.8128 18.466 24.3626ZM14.7371 24.3626C14.7371 23.7383 15.2449 23.2305 15.8691 23.2305C16.4933 23.2305 17.0011 23.7383 17.0011 24.3626C17.0011 24.9869 16.4933 25.4947 15.8691 25.4947C15.2449 25.4947 14.7371 24.9869 14.7371 24.3626Z" fill="white"/>
</g>
</g>
<defs>
<clipPath id="clip0_579_2530">
<rect width="50" height="50" fill="white"/>
</clipPath>
</defs>
</svg>
