<svg width="50" height="50" viewBox="0 0 50 50" fill="none" xmlns="http://www.w3.org/2000/svg">
<g id="Group">
<path id="Vector" d="M49.3891 46.4436L35.1705 32.225C37.9246 28.823 39.5829 24.5001 39.5829 19.7918C39.5829 8.87942 30.7038 0.000305176 19.7914 0.000305176C8.87901 0.000305176 0 8.87932 0 19.7917C0 30.7041 8.87911 39.5832 19.7915 39.5832C24.4998 39.5832 28.8227 37.9249 32.2247 35.1708L46.4433 49.3894C46.8495 49.7956 47.3828 49.9998 47.9162 49.9998C48.4496 49.9998 48.9829 49.7956 49.3892 49.3894C50.2037 48.5748 50.2037 47.2581 49.3891 46.4436ZM19.7915 35.4166C11.1749 35.4166 4.16666 28.4083 4.16666 19.7917C4.16666 11.1751 11.1749 4.16687 19.7915 4.16687C28.4081 4.16687 35.4164 11.1751 35.4164 19.7917C35.4164 28.4083 28.408 35.4166 19.7915 35.4166Z" fill="black"/>
</g>
</svg>
