<svg width="50" height="50" viewBox="0 0 50 50" fill="none" xmlns="http://www.w3.org/2000/svg">
<g id="idea 1" clip-path="url(#clip0_579_2509)">
<g id="Group">
<path id="Vector" d="M19.1406 22.4608V28.3202C19.1406 28.5792 19.2435 28.8276 19.4266 29.0107L21.3798 30.9638C21.563 31.1469 21.8113 31.2499 22.0703 31.2499H27.9296C28.1886 31.2499 28.437 31.1469 28.6202 30.9638L30.5733 29.0107C30.7564 28.8276 30.8593 28.5792 30.8593 28.3202V22.4608C30.8593 20.9659 30.9589 20.6445 33.5474 17.2492C34.9831 15.3661 35.7421 13.1159 35.7421 10.7421C35.7421 4.81893 30.9232 0 25 0C19.0767 0 14.2578 4.81893 14.2578 10.7421C14.2578 13.1159 15.0167 15.3661 16.4525 17.2492C19.041 20.6443 19.1406 20.9658 19.1406 22.4608ZM28.9062 23.4374V25.3905H21.0937V23.4374H28.9062ZM27.525 29.2968H22.4748L21.0936 27.9157V27.3436H28.9061V27.9157L27.525 29.2968ZM25 1.95312C29.8462 1.95312 33.789 5.89588 33.789 10.7421C33.789 12.6843 33.1684 14.525 31.9943 16.0651C29.8037 18.9382 29.1178 19.9591 28.9515 21.4843H25.9765V13.0999L27.6436 11.4328C28.0249 11.0514 28.0249 10.4331 27.6436 10.0516C27.2622 9.67027 26.644 9.67027 26.2625 10.0516L24.9999 11.3142L23.7373 10.0516C23.3558 9.67027 22.7377 9.67027 22.3561 10.0516C21.9748 10.433 21.9748 11.0513 22.3561 11.4328L24.0232 13.0999V21.4843H21.0482C20.8819 19.9589 20.1961 18.9381 18.0055 16.0651C16.8314 14.525 16.2107 12.6843 16.2107 10.7421C16.2109 5.89588 20.1537 1.95312 25 1.95312Z" fill="white"/>
<path id="Vector_2" d="M8.88672 11.7188H10.8398C11.3791 11.7188 11.8164 11.2815 11.8164 10.7422C11.8164 10.2028 11.3791 9.76562 10.8398 9.76562H8.88672C8.34746 9.76562 7.91016 10.2028 7.91016 10.7422C7.91016 11.2815 8.34746 11.7188 8.88672 11.7188Z" fill="white"/>
<path id="Vector_3" d="M10.557 3.53335L12.2484 4.50992C12.4021 4.59868 12.5701 4.64097 12.7357 4.64097C13.0732 4.64097 13.4014 4.46577 13.5824 4.15259C13.8521 3.6855 13.6921 3.08824 13.225 2.81851L11.5336 1.84195C11.0666 1.57222 10.4693 1.73238 10.1996 2.19937C9.92996 2.66636 10.0899 3.26363 10.557 3.53335Z" fill="white"/>
<path id="Vector_4" d="M12.2487 16.9747L10.5573 17.9513C10.0902 18.221 9.93015 18.8182 10.1999 19.2853C10.3808 19.5986 10.709 19.7737 11.0466 19.7737C11.2122 19.7737 11.3802 19.7315 11.5339 19.6427L13.2253 18.6661C13.6924 18.3964 13.8524 17.7993 13.5827 17.3321C13.313 16.8651 12.7158 16.7051 12.2487 16.9747Z" fill="white"/>
<path id="Vector_5" d="M38.1833 10.7422C38.1833 11.2815 38.6207 11.7188 39.1599 11.7188H41.1131C41.6524 11.7188 42.0897 11.2815 42.0897 10.7422C42.0897 10.2028 41.6524 9.76562 41.1131 9.76562H39.1599C38.6207 9.76562 38.1833 10.2028 38.1833 10.7422Z" fill="white"/>
<path id="Vector_6" d="M37.2638 4.64093C37.4295 4.64093 37.5974 4.59864 37.7511 4.50987L39.4426 3.53331C39.9096 3.26358 40.0697 2.66641 39.8 2.19933C39.5302 1.73233 38.9332 1.57227 38.466 1.8419L36.7746 2.81847C36.3075 3.08819 36.1474 3.68536 36.4172 4.15255C36.5981 4.46573 36.9262 4.64093 37.2638 4.64093Z" fill="white"/>
<path id="Vector_7" d="M36.7746 18.6662L38.466 19.6427C38.6197 19.7315 38.7877 19.7737 38.9533 19.7737C39.2908 19.7737 39.619 19.5986 39.8 19.2853C40.0697 18.8182 39.9096 18.221 39.4426 17.9513L37.7511 16.9748C37.2842 16.705 36.687 16.8652 36.4172 17.3322C36.1474 17.7993 36.3075 18.3964 36.7746 18.6662Z" fill="white"/>
<path id="Vector_8" d="M49.0233 41.209V38.2059C49.0233 37.6666 48.586 37.2294 48.0468 37.2294C44.1173 37.2294 41.6636 36.1011 39.4988 35.1056C38.8664 34.8148 38.269 34.5401 37.671 34.3115C34.7989 33.213 32.186 33.1052 29.905 33.991C28.045 34.7133 26.3999 36.1016 24.9999 38.1272C23.5999 36.1016 21.9548 34.7133 20.0948 33.991C17.8139 33.1052 15.2008 33.213 12.3288 34.3115C11.7308 34.5402 11.1336 34.8148 10.5011 35.1056C8.3363 36.1011 5.88259 37.2294 1.95302 37.2294C1.41376 37.2294 0.976461 37.6666 0.976461 38.2059V41.2089C0.437205 41.2089 0 41.6461 0 42.1855V46.58C0 47.1194 0.437303 47.5566 0.976559 47.5566H21.0636C21.7965 49.0239 23.3236 49.998 24.9999 49.998C26.6762 49.998 28.2033 49.0239 28.9362 47.5566H49.0232C49.5625 47.5566 49.9998 47.1194 49.9998 46.58V42.1855C49.9998 41.6462 49.5626 41.209 49.0233 41.209ZM36.9733 36.1358C37.5114 36.3416 38.0803 36.6032 38.6828 36.8802C40.7421 37.8272 43.2665 38.9878 47.0702 39.1607V41.2091H28.3341C27.4372 41.2091 26.65 41.3814 25.9765 41.7235V40.2302C28.6435 35.6659 32.2432 34.3267 36.9733 36.1358ZM11.3171 36.8801C11.9196 36.6032 12.4885 36.3415 13.0265 36.1358C17.7567 34.3267 21.3562 35.666 24.0233 40.2301V41.7234C23.3499 41.3813 22.5627 41.209 21.6657 41.209H2.92958V39.1606C6.73327 38.9878 9.25787 37.8271 11.3171 36.8801ZM48.0467 45.6035H28.2761C27.844 45.6035 27.4634 45.8874 27.3401 46.3014C27.0345 47.3279 26.0723 48.0449 24.9999 48.0449C23.9275 48.0449 22.9653 47.328 22.6597 46.3014C22.5364 45.8873 22.1558 45.6035 21.7237 45.6035H1.95312V43.1621H21.6657C22.8466 43.1621 23.6372 43.5791 24.1541 44.4744C24.3285 44.7766 24.651 44.9627 24.9998 44.9627C25.3486 44.9627 25.6711 44.7766 25.8455 44.4744C26.3624 43.5792 27.1531 43.1621 28.3339 43.1621H48.0465V45.6035H48.0467Z" fill="white"/>
</g>
</g>
<defs>
<clipPath id="clip0_579_2509">
<rect width="50" height="50" fill="white"/>
</clipPath>
</defs>
</svg>
