<svg width="50" height="50" viewBox="0 0 50 50" fill="none" xmlns="http://www.w3.org/2000/svg">
<g id="innovation 1" clip-path="url(#clip0_579_2580)">
<path id="Vector" d="M24.9993 19.5312C22.382 19.5312 20.2527 21.6579 20.2527 24.2722C20.2527 26.8864 22.382 29.0131 24.9993 29.0131C27.6166 29.0131 29.7459 26.8864 29.7459 24.2722C29.7459 21.6579 27.6166 19.5312 24.9993 19.5312ZM24.9993 27.5497C23.1896 27.5497 21.7175 26.0792 21.7175 24.2722C21.7175 22.4648 23.1896 20.9942 24.9993 20.9942C26.809 20.9942 28.2811 22.4648 28.2811 24.2722C28.2811 26.0792 26.809 27.5497 24.9993 27.5497Z" fill="white"/>
<path id="Vector_2" d="M33.6391 17.7575L31.5177 15.6388C31.2599 15.3813 30.8513 15.3524 30.5599 15.5713L28.9619 16.7707C28.4961 16.5246 28.0086 16.3232 27.5051 16.1679L27.2243 14.1915C27.1732 13.8307 26.8638 13.5625 26.4991 13.5625H23.4993C23.1342 13.5625 22.8252 13.8307 22.7737 14.1915L22.4929 16.1679C21.9894 16.3232 21.5023 16.5246 21.0365 16.7707L19.4385 15.5713C19.1467 15.3524 18.7385 15.3813 18.4803 15.6388L16.3593 17.7575C16.1014 18.0154 16.0724 18.4232 16.2914 18.7142L17.4922 20.3107C17.2462 20.7757 17.044 21.2625 16.8888 21.7652L14.9097 22.046C14.5484 22.0971 14.2803 22.4061 14.2803 22.7704V25.7665C14.2803 26.1308 14.5484 26.4398 14.9097 26.4909L16.8888 26.7717C17.044 27.2744 17.2458 27.7612 17.4922 28.2262L16.2914 29.8226C16.0724 30.1137 16.1014 30.5215 16.3593 30.7794L18.4803 32.8981C18.7385 33.1555 19.1467 33.1842 19.4385 32.9656L21.0365 31.7662C21.5023 32.0119 21.9894 32.2137 22.4929 32.369L22.7737 34.3454C22.8252 34.7062 23.1342 34.974 23.4993 34.974H26.4991C26.8638 34.974 27.1728 34.7062 27.2243 34.3454L27.5051 32.369C28.0086 32.2137 28.4961 32.0119 28.9619 31.7662L30.5599 32.9656C30.8513 33.1845 31.2599 33.1555 31.5177 32.8981L33.6391 30.7794C33.897 30.5215 33.9256 30.1137 33.7066 29.8226L32.5058 28.2262C32.7522 27.7612 32.954 27.2744 33.1092 26.7717L35.0883 26.4909C35.4496 26.4398 35.7181 26.1308 35.7181 25.7665V22.7704C35.7181 22.4061 35.4496 22.0971 35.0883 22.046L33.1092 21.7652C32.954 21.2625 32.7522 20.7757 32.5058 20.3107L33.7066 18.7142C33.9256 18.4232 33.897 18.0154 33.6391 17.7575ZM34.2533 23.4052V25.1313L32.4287 25.3904C32.1323 25.4323 31.8912 25.6501 31.8199 25.9408C31.6505 26.6336 31.3766 27.2939 31.0062 27.9031C30.8506 28.1587 30.8666 28.4829 31.0466 28.7221L32.1537 30.1938L30.9314 31.4141L29.4582 30.3086C29.2186 30.129 28.894 30.1126 28.638 30.2682C28.0281 30.6378 27.367 30.9114 26.6731 31.0811C26.3824 31.1521 26.1642 31.3928 26.1219 31.6888L25.8632 33.5111H24.1348L23.8758 31.6888C23.8338 31.3928 23.6152 31.1521 23.3245 31.0811C22.6306 30.9114 21.9699 30.6378 21.36 30.2682C21.104 30.1126 20.7794 30.129 20.5398 30.3086L19.0666 31.4141L17.8443 30.1934L18.9514 28.7221C19.131 28.4829 19.1471 28.1587 18.9918 27.9031C18.6214 27.2939 18.3475 26.6336 18.1777 25.9404C18.1068 25.6501 17.8657 25.4319 17.5693 25.39L15.7447 25.1313V23.4052L17.5693 23.1465C17.8657 23.1046 18.1068 22.8864 18.1777 22.5961C18.3475 21.903 18.6214 21.243 18.9918 20.6338C19.1471 20.3778 19.131 20.0536 18.9514 19.8148L17.8443 18.3431L19.0666 17.1224L20.5398 18.2283C20.7794 18.4075 21.104 18.424 21.36 18.2687C21.9699 17.8987 22.6306 17.6252 23.3245 17.4558C23.6152 17.3844 23.8334 17.1441 23.8758 16.8477L24.1348 15.0254H25.8632L26.1219 16.8477C26.1642 17.1437 26.3824 17.3844 26.6731 17.4558C27.367 17.6252 28.0281 17.8987 28.638 18.2687C28.894 18.424 29.2186 18.4075 29.4582 18.2283L30.9314 17.1224L32.1537 18.3431L31.0466 19.8148C30.8666 20.0536 30.8506 20.3782 31.0062 20.6338C31.3766 21.243 31.6501 21.903 31.8199 22.5957C31.8908 22.8864 32.1319 23.1046 32.4283 23.1465L34.2533 23.4052Z" fill="white"/>
<path id="Vector_3" d="M24.9988 5.75333C25.4035 5.75333 25.7312 5.42603 25.7312 5.02205V0.731659C25.7312 0.327301 25.4035 0 24.9988 0C24.5944 0 24.2664 0.327301 24.2664 0.731659V5.02205C24.2664 5.42603 24.5944 5.75333 24.9988 5.75333Z" fill="white"/>
<path id="Vector_4" d="M46.9215 21.8984H42.6257C42.221 21.8984 41.8933 22.2257 41.8933 22.6297C41.8933 23.0341 42.221 23.3614 42.6257 23.3614H46.9215C47.3258 23.3614 47.6539 23.0341 47.6539 22.6297C47.6539 22.2257 47.3258 21.8984 46.9215 21.8984Z" fill="white"/>
<path id="Vector_5" d="M7.3719 21.8984H3.07617C2.67181 21.8984 2.34375 22.2257 2.34375 22.6297C2.34375 23.0341 2.67181 23.3614 3.07617 23.3614H7.3719C7.77626 23.3614 8.10432 23.0341 8.10432 22.6297C8.10432 22.2257 7.77664 21.8984 7.3719 21.8984Z" fill="white"/>
<path id="Vector_6" d="M12.0166 10.6964C12.2989 10.9783 12.7704 10.9783 13.0523 10.6964C13.3384 10.4107 13.3384 9.94762 13.0523 9.6619L10.015 6.62807C9.72891 6.34273 9.26504 6.34273 8.97894 6.62807C8.69322 6.91379 8.69322 7.37689 8.97894 7.66299L12.0166 10.6964Z" fill="white"/>
<path id="Vector_7" d="M8.85348 15.5221L7.36918 14.9412C6.99229 14.7939 6.56771 14.9793 6.42008 15.3554C6.27245 15.7316 6.45823 16.1562 6.83474 16.3034L8.31942 16.8844C8.69135 17.0297 9.12279 16.8413 9.26852 16.4701C9.41614 16.0936 9.23037 15.6694 8.85348 15.5221Z" fill="white"/>
<path id="Vector_8" d="M17.8868 6.50131C18.0325 6.87248 18.4639 7.06093 18.8359 6.91559C19.2124 6.76834 19.3982 6.34377 19.2509 5.96764L18.652 4.44176C18.5048 4.06525 18.0798 3.87985 17.7029 4.0271C17.3264 4.17473 17.1406 4.59893 17.2882 4.97505L17.8868 6.50131Z" fill="white"/>
<path id="Vector_9" d="M31.1614 6.91544C31.5333 7.06078 31.9648 6.87233 32.1105 6.50116L32.7094 4.97528C32.8567 4.59877 32.6713 4.17458 32.2944 4.02695C31.9179 3.88008 31.4929 4.0651 31.3453 4.44123L30.7467 5.96749C30.5991 6.34362 30.7849 6.76781 31.1614 6.91544Z" fill="white"/>
<path id="Vector_10" d="M37.4631 10.9108C37.6504 10.9108 37.8381 10.8395 37.9811 10.6964L41.0184 7.66299C41.3045 7.37689 41.3045 6.91379 41.0184 6.62807C40.7323 6.34273 40.2688 6.34273 39.9827 6.62807L36.945 9.6619C36.6589 9.94762 36.6589 10.4107 36.945 10.6964C37.0881 10.8395 37.2758 10.9108 37.4631 10.9108Z" fill="white"/>
<path id="Vector_11" d="M43.5776 15.3555C43.43 14.979 43.005 14.794 42.6285 14.9412L41.1438 15.5222C40.7673 15.6694 40.5815 16.0936 40.7292 16.4701C40.8749 16.8413 41.3063 17.0298 41.6783 16.8844L43.1629 16.3034C43.5395 16.1562 43.7252 15.7316 43.5776 15.3555Z" fill="white"/>
<path id="Vector_12" d="M25.1326 7.53181C22.0813 7.50587 19.1035 8.37486 16.5271 10.0438C16.1876 10.2639 16.091 10.7167 16.3112 11.0558C16.5309 11.3946 16.9848 11.4911 17.324 11.2714C19.6261 9.78058 22.2781 8.99437 25.0026 8.99437C25.0419 8.99437 25.0815 8.99437 25.1208 8.99475C28.892 9.02641 32.4324 10.5168 35.0901 13.1924C37.7494 15.8692 39.2138 19.4203 39.2138 23.1915C39.2138 27.8035 36.9567 32.145 33.1756 34.8054C31.9281 35.6828 31.1126 37.0271 30.9077 38.4969H28.4022C27.9975 38.4969 27.6698 38.8245 27.6698 39.2285C27.6698 39.6325 27.9975 39.9602 28.4022 39.9602H30.857V43.7115C30.857 44.6385 30.1017 45.3927 29.1736 45.3927H20.8247C19.8966 45.3927 19.1413 44.6385 19.1413 43.7115V39.9602H25.4725C25.8773 39.9602 26.205 39.6325 26.205 39.2285C26.205 38.8245 25.8773 38.4969 25.4725 38.4969H19.0894C18.8872 37.0251 18.0835 35.6881 16.8509 34.8252C13.0523 32.1664 10.7844 27.8176 10.7844 23.1919C10.7844 19.3394 12.3301 15.7235 15.1374 13.0101C15.4281 12.729 15.4357 12.2659 15.1542 11.9756C14.873 11.6853 14.4095 11.6776 14.1185 11.9588C11.024 14.9503 9.31958 18.9397 9.31958 23.1919C9.31958 28.2941 11.8209 33.091 16.0102 36.0234C17.0535 36.7535 17.6764 37.9517 17.6764 39.2285V43.7115C17.6764 45.2321 18.7629 46.5039 20.201 46.7934C20.9967 48.7283 22.8682 49.9974 24.9991 49.9974C27.13 49.9974 29.0015 48.7283 29.7969 46.7934C31.235 46.5039 32.3214 45.2321 32.3214 43.7115V39.2304C32.3214 39.2297 32.3218 39.2293 32.3218 39.2285C32.3218 37.9555 32.9562 36.7493 34.0194 36.0013C38.1888 33.0674 40.6783 28.2788 40.6783 23.1919C40.6783 19.032 39.0632 15.1151 36.13 12.1621C33.1984 9.21104 29.293 7.56653 25.1326 7.53181ZM24.9991 48.5345C23.7109 48.5345 22.5547 47.8886 21.8806 46.8556H28.1176C27.4436 47.8886 26.2874 48.5345 24.9991 48.5345Z" fill="white"/>
</g>
<defs>
<clipPath id="clip0_579_2580">
<rect width="50" height="50" fill="white"/>
</clipPath>
</defs>
</svg>
