<svg width="99" height="64" viewBox="0 0 99 64" fill="none" xmlns="http://www.w3.org/2000/svg">
<g id="Layer_x0020_1">
<g id="_235782456">
<path id="Vector" d="M92.6717 0.536133H6.32801C2.99009 0.536133 0.28418 3.24205 0.28418 6.57996V57.4219C0.28418 60.7599 2.99009 63.4658 6.32801 63.4658H92.6717C96.0096 63.4658 98.7155 60.7599 98.7155 57.4219V6.57996C98.7155 3.24205 96.0096 0.536133 92.6717 0.536133Z" fill="url(#paint0_linear_327_5318)"/>
<g id="Group">
<path id="Vector_2" fill-rule="evenodd" clip-rule="evenodd" d="M26.5354 31.4017L26.9737 29.6716C28.6577 29.1641 32.0948 28.9334 32.7407 30.7558C33.1098 31.8169 32.0487 36.2229 31.841 37.5147L30.2032 37.5378C29.8341 37.0764 30.134 37.9299 29.8803 36.7996C28.3116 38.2067 24.9668 37.9761 25.2205 35.1387C25.4743 32.3244 27.9195 32.6935 30.5723 32.2782C30.5262 30.4789 28.2655 30.9634 26.5123 31.3786L26.5354 31.4017ZM38.8768 31.1248C37.3774 31.1248 37.1467 30.8019 35.8318 31.3786C35.9933 33.0164 36.8468 32.3705 38.0233 33.1548C40.2609 34.6312 37.8618 39.1987 32.5331 37.2379L32.833 35.577C34.3324 35.8769 35.0936 36.1767 36.247 35.5308C36.5239 33.201 32.3947 34.7235 33.5481 30.9864C34.1709 28.9564 36.916 29.2333 39.1767 29.4409L38.8537 31.1248H38.8768ZM15.901 27.5954L19.4304 27.7108L19.7995 33.2471L21.7142 28.818C22.3601 27.2263 21.9218 27.5724 25.9818 27.6185L24.1594 37.5147L22.1755 37.4916L23.2597 30.3867L20.3301 37.5378L17.9541 37.4686C17.8849 36.0845 17.7695 31.2171 17.4004 30.2944L16.2009 37.4916L14.1248 37.4686L15.901 27.5954ZM49.5573 48.6104L50.5262 47.457C48.5884 47.2033 48.2424 47.7569 47.3658 46.1883L51.818 46.1421C52.0948 45.6808 52.5562 45.2425 52.7868 44.7119C47.7119 44.3659 46.2816 45.6577 45.4743 43.4432H53.6173L54.5169 42.036L44.4593 41.9899L43.9979 40.8134L54.8399 40.7673C55.4627 40.4213 55.4627 40.0291 55.6242 39.314L45.3589 39.2909C43.5135 39.314 43.3981 39.7292 43.0521 38.0453H55.9702L56.3854 36.615L52.6023 36.5689L52.4177 37.5378L50.2493 37.4455L51.6104 29.3947L53.6634 29.6716C53.6634 29.7177 53.7096 29.8792 53.7096 29.9484C53.7096 29.9945 53.7326 30.0637 53.7326 30.0868L53.848 30.502C54.4247 29.81 54.7938 29.3025 56.1317 29.3486L55.4397 31.2171C55.0475 31.7246 53.8941 31.1479 53.4097 32.532L55.6703 32.6243C55.9241 31.171 56.2009 30.7327 56.6161 29.5562L56.6392 28.8642L42.4985 28.8872L42.4523 29.3947C43.2136 29.3947 43.1905 29.2563 43.6288 29.6254L43.4212 30.9864C41.991 31.3325 42.0371 30.4789 41.8987 32.3474C42.1063 32.6935 41.8526 32.5089 42.2909 32.6243L43.1905 32.6473C44.6438 27.9184 48.9806 28.9564 49.9725 30.4328C50.5031 31.2171 51.0337 33.8007 49.7188 34.0083L45.3128 34.0545C45.5204 36.3844 48.1963 35.8999 49.9264 35.3232C49.8572 36.2921 49.9264 37.0764 49.0267 37.3994C48.3116 37.6531 46.8122 37.5839 46.0279 37.3994C44.0902 36.9611 43.2597 35.9922 43.1213 33.893L42.2909 33.8699C41.5296 33.5239 42.1294 33.8699 41.7372 32.9242C41.4143 34.8619 40.5377 36.1075 42.9368 35.8307C42.7984 36.9841 42.9598 37.3763 41.6911 37.5147C38.0002 37.953 39.1998 35.4847 39.7995 32.186C40.7453 26.9265 40.0071 27.5724 42.683 27.6185L56.4316 27.6416L56.1548 26.2113L42.8676 26.1652L43.1213 25.0118L55.6934 24.9426C55.3705 22.9818 55.3013 23.4663 50.7338 23.4663C48.4039 23.4663 46.0971 23.4663 43.7672 23.4663C44.2517 21.7823 43.9979 22.2436 48.5192 22.2436H54.6323L53.9864 20.7904L45.1282 20.7673L45.728 19.5678L53.1329 19.5216C52.1871 17.5839 52.2332 18.1375 46.9967 18.0453C47.6657 16.3844 48.8422 16.7996 50.8953 16.7996C50.3186 15.8769 49.9033 15.9461 49.5573 15.1618C48.7038 14.7235 47.9425 13.9391 47.089 13.3394C40.5608 8.72577 31.7026 8.24134 24.5977 11.7015C18.2078 14.7927 11.9333 21.9438 12.0025 31.84C12.0948 45.9807 24.5054 56.2921 38.5538 53.893C45.1513 52.7627 46.8122 50.0868 49.5342 48.5874L49.5573 48.6104Z" fill="#E41D2C"/>
<path id="Vector_3" fill-rule="evenodd" clip-rule="evenodd" d="M64.6207 29.6028C71.7718 28.1495 70.5953 31.6789 70.0186 34.5393C69.8341 35.3928 69.8341 37.0768 69.1651 37.5382C69.0036 37.5382 68.0578 37.5612 67.9655 37.5151C67.3196 37.2613 67.6195 38.0226 67.5273 36.8461C65.5895 37.9534 62.5215 38.2071 62.8906 35.116C63.1905 32.6477 65.6818 32.2556 68.2193 32.3709C68.127 30.5485 66.4661 30.8484 64.1593 31.4251L64.6437 29.6028H64.6207ZM71.6795 29.3951L73.5942 29.4182C73.6172 29.4643 73.6403 29.5335 73.6403 29.5797L73.9402 30.4332C74.2862 29.9026 74.9321 29.4413 75.9471 29.4182L75.6703 31.056L74.7245 31.4251C72.8329 32.048 72.9482 34.424 72.4407 37.5382H70.2954L71.6795 29.3951ZM81.8525 27.642H83.8133L82.1293 37.5612C79.9379 37.5843 80.4684 37.6996 79.7764 36.8692C78.3462 38.9914 74.0555 37.0307 75.3704 32.6477C76.3392 29.3721 79.6149 28.4955 81.2297 30.4332L81.8756 27.6189L81.8525 27.642ZM49.5803 15.1852C49.9263 15.9695 50.3646 15.9003 50.9183 16.8231C48.8652 16.8231 47.6887 16.3848 47.0198 18.0687C52.2562 18.161 52.2101 17.6074 53.1559 19.5451L45.751 19.5912L45.1512 20.7908L54.0094 20.8138L54.6553 22.2671C52.6253 22.2671 50.5953 22.2671 48.5422 22.2671C44.044 22.2671 44.2747 21.8288 43.7902 23.4897H50.7568C55.3243 23.4897 55.3935 23.0053 55.7164 24.9661L43.1443 25.0353L42.8906 26.1887L56.1778 26.2348L56.4546 27.665L42.706 27.642L42.5215 28.9338L56.6622 28.9107L56.6391 29.6028C57.7003 28.5878 57.5157 28.0572 59.4996 27.4805C61.1374 27.0191 62.1755 27.3652 63.7902 27.7112L63.4442 29.8334C60.676 29.003 58.8767 29.2106 58.2308 32.071C57.5157 35.1391 59.9379 36.2925 62.4984 35.0699C62.2677 37.3075 61.8986 37.8611 59.2689 37.5151C57.4465 37.2844 56.8929 36.4078 56.0855 35.3236H52.7868L52.6022 36.5924L56.3854 36.6385L55.9702 38.0687H43.052C43.3981 39.7527 43.5134 39.3375 45.3589 39.3144L55.6241 39.3375C55.4396 40.0295 55.4627 40.4447 54.8398 40.7908L43.9978 40.8369L44.4592 42.0134L54.5169 42.0595L53.6172 43.4666H45.4742C46.2816 45.6581 47.7118 44.3894 52.7868 44.7354C52.5561 45.266 52.0947 45.7043 51.8179 46.1656L47.3658 46.2117C48.2193 47.7573 48.5884 47.2267 50.5261 47.4805L49.5572 48.6339C52.856 51.056 55.4165 53.086 60.7452 54.0087C65.5895 54.8392 70.6414 53.9165 74.5399 52.0018C91.4258 43.6743 90.9644 19.6835 74.4015 11.7481C68.45 8.91071 60.5607 8.65696 54.4015 11.8865C51.4258 13.432 50.7106 14.5393 49.6034 15.2083L49.5803 15.1852Z" fill="#F8B02B"/>
<g id="Group_2">
<path id="Vector_4" fill-rule="evenodd" clip-rule="evenodd" d="M14.125 37.4914L16.2011 37.5145L17.4007 30.3173C17.7698 31.24 17.8851 36.1073 17.9543 37.4914L20.3303 37.5606L23.2599 30.4095L22.1757 37.5145L24.1596 37.5376L25.982 27.6414C21.922 27.5952 22.3603 27.2492 21.7144 28.8409L19.7997 33.27L19.4307 27.7336L15.9012 27.6183L14.125 37.4914Z" fill="#FEFEFE"/>
<path id="Vector_5" fill-rule="evenodd" clip-rule="evenodd" d="M78.3928 35.6683C76.6627 33.8921 78.139 30.9394 79.7538 31.3315C81.3455 31.7237 81.0456 35.6222 78.3928 35.6683ZM81.2071 30.4319C79.5923 28.4941 76.3397 29.3707 75.3478 32.6464C74.0329 37.0063 78.3236 38.9901 79.7538 36.8678C80.4458 37.6983 79.9153 37.5599 82.1067 37.5599L83.7907 27.6406H81.8299L81.184 30.4549L81.2071 30.4319Z" fill="#FEFEFE"/>
<path id="Vector_6" fill-rule="evenodd" clip-rule="evenodd" d="M65.3593 35.6916C65.0364 34.1461 66.4666 33.5463 67.8276 33.8231C67.8968 35.3917 66.7895 36.2452 65.3593 35.6916ZM64.6211 29.6247L64.1367 31.4471C66.4435 30.8935 68.1275 30.5936 68.1967 32.3929C65.6592 32.2775 63.1679 32.6697 62.868 35.138C62.4758 38.2291 65.5669 37.9754 67.5047 36.8681C67.5969 38.0446 67.297 37.2833 67.9429 37.5371C68.0352 37.5832 68.981 37.5601 69.1425 37.5601C69.8345 37.1218 69.8345 35.4148 69.996 34.5613C70.5958 31.6778 71.7492 28.1714 64.5981 29.6247H64.6211Z" fill="#FEFEFE"/>
<path id="Vector_7" fill-rule="evenodd" clip-rule="evenodd" d="M30.2034 33.7545C30.2495 34.5388 30.1111 35.1386 29.6036 35.5307C29.2576 35.7845 28.2195 36.0844 27.8043 35.6922C26.5125 34.5157 28.9346 33.7314 30.1803 33.7545H30.2034ZM26.5355 31.4016C28.2887 30.9863 30.5494 30.5019 30.5955 32.3012C27.9427 32.7164 25.4975 32.3473 25.2437 35.1616C24.9669 37.999 28.3118 38.2297 29.9035 36.8225C30.1572 37.9529 29.8573 37.0994 30.2264 37.5607L31.8643 37.5377C32.0719 36.2228 33.133 31.8398 32.7639 30.7787C32.118 28.9333 28.7039 29.1639 26.9969 29.6945L26.5586 31.4246L26.5355 31.4016Z" fill="#FEFEFE"/>
<path id="Vector_8" fill-rule="evenodd" clip-rule="evenodd" d="M45.6586 32.5543C45.9585 31.3778 46.466 30.8934 47.827 31.0779C48.3114 31.77 48.3114 31.5624 48.4037 32.5543H45.6586ZM43.2134 32.6696L43.1211 33.9153C43.2595 36.0145 44.113 36.9603 46.0277 37.4217C46.812 37.6062 48.3114 37.6754 49.0265 37.4217C49.9262 37.1218 49.857 36.3144 49.9262 35.3455C48.1961 35.9222 45.5202 36.4067 45.3126 34.0768L49.7186 34.0307C51.0334 33.823 50.5029 31.2625 49.9723 30.4551C48.9804 28.9788 44.6436 27.9407 43.1903 32.6696H43.2134Z" fill="#FEFEFE"/>
<path id="Vector_9" fill-rule="evenodd" clip-rule="evenodd" d="M56.6391 29.6019C56.2239 30.7784 55.9471 31.2167 55.6934 32.6699V33.9387L56.0855 35.3458C56.8929 36.43 57.4465 37.3066 59.2689 37.5373C61.8987 37.8833 62.2678 37.3297 62.4984 35.0921C59.9148 36.3147 57.5157 35.1613 58.2308 32.0932C58.8998 29.2097 60.6991 29.0252 63.4442 29.8556L63.7902 27.7334C62.1755 27.4104 61.1374 27.0644 59.4996 27.5027C57.5157 28.0563 57.7003 28.61 56.6391 29.625V29.6019Z" fill="#FEFEFE"/>
<path id="Vector_10" fill-rule="evenodd" clip-rule="evenodd" d="M39.1768 29.4402C36.9161 29.2556 34.171 28.9557 33.5482 30.9857C32.3948 34.7227 36.5009 33.2003 36.2472 35.5301C35.0707 36.176 34.3325 35.8761 32.8331 35.5763L32.5332 37.2372C37.8619 39.1979 40.2379 34.6535 38.0234 33.1541C36.8469 32.3698 35.9934 33.0388 35.8319 31.3779C37.1468 30.7781 37.3544 31.1241 38.8769 31.1241L39.1999 29.4402H39.1768Z" fill="#FEFEFE"/>
<path id="Vector_11" fill-rule="evenodd" clip-rule="evenodd" d="M41.7602 32.9467L41.9217 32.3931C42.0601 30.5246 42.014 31.3781 43.4442 31.0321L43.6518 29.6711C43.2135 29.302 43.2366 29.4404 42.4753 29.4404L42.5215 28.9329L42.706 27.6411C40.0301 27.5949 40.7683 26.949 39.8225 32.2085C39.2227 35.5073 38.0232 37.9756 41.7141 37.5373C42.9598 37.3988 42.8213 37.0067 42.9598 35.8533C40.5837 36.1301 41.4603 34.8844 41.7602 32.9467Z" fill="#FEFEFE"/>
<path id="Vector_12" fill-rule="evenodd" clip-rule="evenodd" d="M52.6023 36.6148L52.7869 35.3461L53.0176 33.962L53.4328 32.5779C53.9403 31.1938 55.0937 31.7705 55.4628 31.263L56.1548 29.3945C54.7938 29.3484 54.4247 29.8559 53.8711 30.5479L53.7557 30.1327C53.7557 30.1096 53.7327 30.0404 53.7327 29.9943C53.7327 29.9481 53.6865 29.7636 53.6865 29.7175L51.6335 29.4406L50.2725 37.4914L52.4409 37.5837L52.6254 36.6148H52.6023Z" fill="#FEFEFE"/>
<path id="Vector_13" fill-rule="evenodd" clip-rule="evenodd" d="M70.2959 37.5376H72.4412C72.9487 34.4234 72.8334 32.0474 74.725 31.4245L75.6708 31.0554L75.9476 29.4176C74.9326 29.4407 74.2867 29.902 73.9407 30.4326L73.6408 29.5791C73.6177 29.5329 73.6177 29.4637 73.5946 29.4176L71.68 29.3945L70.2959 37.5376Z" fill="#FEFEFE"/>
</g>
<path id="Vector_14" fill-rule="evenodd" clip-rule="evenodd" d="M78.3926 35.6691C81.0684 35.623 81.3683 31.7245 79.7536 31.3323C78.1157 30.9402 76.6625 33.8929 78.3926 35.6691Z" fill="#F8B02B"/>
<path id="Vector_15" fill-rule="evenodd" clip-rule="evenodd" d="M30.2035 33.7544C28.9579 33.7313 26.5357 34.5156 27.8275 35.6921C28.2427 36.0612 29.2808 35.7613 29.6268 35.5306C30.1343 35.1616 30.2497 34.5387 30.2266 33.7544H30.2035Z" fill="#E41D2C"/>
<path id="Vector_16" fill-rule="evenodd" clip-rule="evenodd" d="M52.7871 35.3235L56.0858 35.3466L55.6937 33.9395H53.0178L52.7871 35.3235Z" fill="#E41D2C"/>
<path id="Vector_17" fill-rule="evenodd" clip-rule="evenodd" d="M65.3593 35.6924C66.8125 36.223 67.8967 35.3926 67.8275 33.8239C66.4434 33.5702 65.0363 34.17 65.3593 35.6924Z" fill="#F8B02B"/>
<path id="Vector_18" fill-rule="evenodd" clip-rule="evenodd" d="M53.0176 33.9388H55.6935V32.67L53.4328 32.5547L53.0176 33.9388Z" fill="#F8B02B"/>
<path id="Vector_19" fill-rule="evenodd" clip-rule="evenodd" d="M45.6592 32.5555H48.4043C48.3351 31.5866 48.312 31.7712 47.8276 31.0791C46.4666 30.8946 45.9591 31.379 45.6592 32.5555Z" fill="#E41D2C"/>
<path id="Vector_20" fill-rule="evenodd" clip-rule="evenodd" d="M41.7607 32.9468C42.1529 33.8926 41.5531 33.5466 42.3144 33.8926L43.1448 33.9157L43.2371 32.67L42.3374 32.6469C41.8761 32.5547 42.1298 32.7161 41.9453 32.3701L41.7838 32.9238L41.7607 32.9468Z" fill="#F8B02B"/>
</g>
</g>
</g>
<defs>
<linearGradient id="paint0_linear_327_5318" x1="49.4989" y1="0.544899" x2="49.4989" y2="63.4794" gradientUnits="userSpaceOnUse">
<stop stop-color="#1D4C80"/>
<stop offset="1" stop-color="#173A63"/>
</linearGradient>
</defs>
</svg>
