<svg width="50" height="50" viewBox="0 0 50 50" fill="none" xmlns="http://www.w3.org/2000/svg">
<g clip-path="url(#clip0_1_508)">
<path d="M25 0C11.1932 0 0 11.1932 0 25C0 38.8068 11.1932 50 25 50C38.8068 50 50 38.8068 50 25C50 11.1932 38.8068 0 25 0ZM25 45.8333C13.4943 45.8333 4.1667 36.5057 4.1667 25C4.1667 13.4943 13.4943 4.1667 25 4.1667C36.5057 4.1667 45.8333 13.4943 45.8333 25C45.8333 36.5057 36.5057 45.8333 25 45.8333Z" fill="white"/>
<path d="M22.3064 13.1102C21.4929 12.2966 20.1737 12.2966 19.3602 13.1102C18.5466 13.9238 18.5466 15.2429 19.3602 16.0565L28.3037 25L19.3602 33.9436C18.5466 34.7572 18.5466 36.0763 19.3602 36.8899C20.1737 37.7034 21.4929 37.7034 22.3064 36.8899L32.7231 26.4732C33.5367 25.6596 33.5367 24.3405 32.7231 23.5269L22.3064 13.1102Z" fill="white"/>
</g>
<defs>
<clipPath id="clip0_1_508">
<rect width="50" height="50" fill="white"/>
</clipPath>
</defs>
</svg>
