<svg width="50" height="50" viewBox="0 0 50 50" fill="none" xmlns="http://www.w3.org/2000/svg">
<g clip-path="url(#clip0_1_502)">
<path d="M25 0C38.8068 0 50 11.1932 50 25C50 38.8068 38.8068 50 25 50C11.1932 50 0 38.8068 0 25C0 11.1932 11.1932 0 25 0ZM25 45.8333C36.5057 45.8333 45.8333 36.5057 45.8333 25C45.8333 13.4943 36.5057 4.1667 25 4.1667C13.4943 4.1667 4.1667 13.4943 4.1667 25C4.1667 36.5057 13.4943 45.8333 25 45.8333Z" fill="white"/>
<path d="M27.6936 13.1102C28.5071 12.2966 29.8263 12.2966 30.6398 13.1102C31.4534 13.9238 31.4534 15.2429 30.6398 16.0565L21.6963 25L30.6398 33.9436C31.4534 34.7572 31.4534 36.0763 30.6398 36.8899C29.8263 37.7034 28.5071 37.7034 27.6936 36.8899L17.2769 26.4732C16.4633 25.6596 16.4633 24.3405 17.2769 23.5269L27.6936 13.1102Z" fill="white"/>
</g>
<defs>
<clipPath id="clip0_1_502">
<rect width="50" height="50" fill="white" transform="matrix(-1 0 0 1 50 0)"/>
</clipPath>
</defs>
</svg>
