<svg width="50" height="50" viewBox="0 0 50 50" fill="none" xmlns="http://www.w3.org/2000/svg">
<g id="shake 1" clip-path="url(#clip0_579_2597)">
<path id="Vector" d="M48.4375 45.309H46.6424L47.3604 36.7105C47.3286 36.7114 47.2976 36.7153 47.2656 36.7153H45.792L45.0745 45.309H42.6193L41.9393 36.7153H40.372L41.0519 45.309H11.2268L12.6461 27.3683L16.1342 20.5072L24.9727 24.1117C25.342 24.2645 25.7468 24.3105 26.141 24.2446C26.5344 24.3103 26.9383 24.2642 27.3067 24.1115L36.1444 20.5073L37.1925 22.569C37.4837 22.1004 37.8931 21.7167 38.3796 21.4563L33.8802 12.606C33.6843 12.2246 33.5675 11.8077 33.5366 11.38C33.5058 10.9524 33.5617 10.523 33.7009 10.1175C33.8488 9.68896 34.0817 9.29472 34.3857 8.95841C34.6896 8.6221 35.0584 8.35065 35.4698 8.16035C35.91 7.9529 36.387 7.83525 36.8731 7.8143C37.3593 7.79334 37.8447 7.86948 38.3011 8.03828C39.1169 8.33579 39.7908 8.92965 40.1886 9.70161L42.3759 13.5231C42.5094 13.7562 42.5804 14.0197 42.5823 14.2883L42.6428 23.0054C42.641 23.2212 42.5549 23.4277 42.4028 23.5808C42.2508 23.7339 42.0449 23.8214 41.8291 23.8246C41.6134 23.8244 41.4066 23.7386 41.2541 23.5861C41.1016 23.4336 41.0159 23.2268 41.0156 23.0112V15.4262C41.0157 15.2785 40.9738 15.1339 40.8949 15.0091L38.5511 11.2981C38.4404 11.1232 38.2648 10.9993 38.0628 10.9538C37.8608 10.9082 37.6489 10.9448 37.4739 11.0553C37.2988 11.1659 37.1748 11.3415 37.1291 11.5434C37.0834 11.7454 37.1197 11.9572 37.2301 12.1324L39.4531 15.6522V22.7082C39.1186 22.7944 38.822 22.989 38.61 23.2617C38.3979 23.5345 38.2823 23.8698 38.2812 24.2153V25.7778H36.3281C35.9139 25.7782 35.5167 25.943 35.2238 26.2359C34.9309 26.5289 34.7661 26.926 34.7656 27.3403V33.5903C34.7661 34.0045 34.9309 34.4017 35.2238 34.6946C35.5167 34.9875 35.9139 35.1523 36.3281 35.1528H47.2656C47.6799 35.1523 48.077 34.9875 48.37 34.6946C48.6629 34.4017 48.8277 34.0045 48.8281 33.5903V27.3403C48.8277 26.926 48.6629 26.5289 48.37 26.2359C48.077 25.943 47.6799 25.7782 47.2656 25.7778H45.3125V24.2153C45.3113 23.8812 45.2029 23.5564 45.0032 23.2886C44.8036 23.0209 44.5232 22.8243 44.2034 22.7278L44.1758 18.7462L45.4261 21.5822C45.8696 21.8638 46.2349 22.2527 46.4881 22.7129C46.7414 23.1732 46.8745 23.6899 46.875 24.2153H47.2656C47.5526 24.216 47.8381 24.2564 48.114 24.3354C48.0051 23.7397 47.8273 23.1587 47.5842 22.6041L44.1485 14.8108L44.1448 14.2778C44.1409 13.7405 43.9988 13.2132 43.7321 12.7468L41.4689 8.79288C40.8862 7.76472 39.9562 6.97794 38.8456 6.57382C38.2411 6.35144 37.6006 6.24326 36.9566 6.25479C37.3761 5.43727 37.5223 4.50677 37.3737 3.60002C37.2251 2.69326 36.7897 1.85806 36.1313 1.21713C35.4729 0.576209 34.6262 0.163355 33.7158 0.0392334C32.8054 -0.0848877 31.8792 0.0862692 31.0732 0.527555C30.2673 0.968842 29.6241 1.65699 29.2382 2.49088C28.8524 3.32478 28.7441 4.26045 28.9294 5.16042C29.1147 6.06039 29.5838 6.87719 30.2677 7.49083C30.9516 8.10446 31.8143 8.48256 32.729 8.56956C32.519 8.89609 32.3488 9.24659 32.222 9.61358C32.0433 10.1409 31.9587 10.6955 31.9719 11.2521C31.9671 11.2947 31.9659 11.3376 31.9681 11.3804L32.3231 16.3498L26.1394 19.7484L19.9556 16.3497L20.3106 11.3803C20.3129 11.3374 20.3116 11.2944 20.3068 11.2517C20.32 10.6952 20.2353 10.1407 20.0567 9.61356C19.93 9.24658 19.7597 8.89609 19.5496 8.56956C20.4676 8.4839 21.3338 8.10587 22.0208 7.4911C22.7078 6.87632 23.1794 6.05727 23.3661 5.15445C23.5528 4.25162 23.4449 3.31271 23.0581 2.47584C22.6713 1.63898 22.0261 0.948366 21.2174 0.505611C20.4088 0.0628563 19.4793 -0.108658 18.5659 0.0163052C17.6525 0.141268 16.8033 0.556109 16.1433 1.19979C15.4833 1.84347 15.0473 2.682 14.8994 3.592C14.7516 4.50201 14.8998 5.43543 15.3221 6.25492C14.6782 6.24339 14.0377 6.35146 13.4333 6.57364C12.8055 6.80126 12.2302 7.15348 11.742 7.60912C11.2538 8.06476 10.8628 8.61441 10.5925 9.22503L4.69456 22.6041C4.61111 22.7934 4.53823 22.9867 4.47028 23.1816C4.46668 23.1921 4.46293 23.2025 4.45981 23.2131C4.10638 24.2379 3.96952 25.325 4.05789 26.4055L5.63633 45.309H1.5625C1.14824 45.3095 0.751092 45.4743 0.458169 45.7672C0.165246 46.0601 0.00047351 46.4573 0 46.8715V48.434C0.00047351 48.8483 0.165246 49.2454 0.458169 49.5383C0.751092 49.8313 1.14824 49.996 1.5625 49.9965H48.4375C48.8518 49.996 49.2489 49.8313 49.5418 49.5383C49.8348 49.2454 49.9995 48.8483 50 48.434V46.8715C49.9995 46.4573 49.8348 46.0601 49.5418 45.7672C49.2489 45.4743 48.8518 45.3095 48.4375 45.309ZM47.2656 27.3403L47.2666 33.5903H36.3281V27.3403H47.2656ZM43.75 24.4059V25.7778H39.8438V24.3129C40.0374 24.6089 40.2947 24.8579 40.597 25.0417C40.8992 25.2254 41.2387 25.3393 41.5906 25.375C41.9425 25.4107 42.298 25.3673 42.631 25.248C42.9639 25.1287 43.2661 24.9365 43.5152 24.6854C43.6004 24.5983 43.6789 24.5049 43.75 24.4059ZM30.4037 4.29339C30.4037 3.75258 30.5641 3.22392 30.8645 2.77426C31.165 2.32459 31.592 1.97412 32.0917 1.76716C32.5913 1.5602 33.1411 1.50605 33.6715 1.61156C34.202 1.71706 34.6892 1.97749 35.0716 2.3599C35.454 2.74231 35.7144 3.22953 35.8199 3.75994C35.9254 4.29036 35.8713 4.84015 35.6643 5.33979C35.4574 5.83944 35.1069 6.26649 34.6572 6.56694C34.2076 6.8674 33.6789 7.02777 33.1381 7.02777C32.4131 7.02696 31.7181 6.73861 31.2055 6.22599C30.6929 5.71337 30.4045 5.01834 30.4037 4.29339ZM33.5144 17.4781C33.6453 17.4062 33.7529 17.2981 33.8243 17.1669C33.8957 17.0357 33.9281 16.8867 33.9174 16.7377L33.8666 16.0269L35.4338 19.1096L27.9971 22.1424C28.0127 21.6425 27.857 21.1523 27.556 20.753L33.5144 17.4781ZM19.1406 1.55902C19.6814 1.55902 20.2101 1.71939 20.6598 2.01984C21.1094 2.3203 21.4599 2.74735 21.6669 3.24699C21.8738 3.74663 21.928 4.29643 21.8225 4.82684C21.717 5.35726 21.4565 5.84448 21.0741 6.22689C20.6917 6.6093 20.2045 6.86972 19.6741 6.97523C19.1437 7.08073 18.5939 7.02658 18.0942 6.81963C17.5946 6.61267 17.1675 6.2622 16.8671 5.81253C16.5666 5.36286 16.4062 4.8342 16.4062 4.29339C16.4071 3.56844 16.6954 2.87341 17.208 2.3608C17.7206 1.84818 18.4157 1.55983 19.1406 1.55902ZM12.0222 9.85522C12.2089 9.43618 12.4783 9.05921 12.8144 8.74697C13.1505 8.43473 13.5462 8.19367 13.9778 8.03828C14.4341 7.86939 14.9195 7.7932 15.4056 7.81416C15.8916 7.83512 16.3687 7.95281 16.8087 8.16035C17.2202 8.35063 17.589 8.62209 17.893 8.95844C18.197 9.29478 18.4299 9.68908 18.5778 10.1177C18.7339 10.5764 18.7831 11.0648 18.7217 11.5454L18.7324 11.5425L18.3613 16.7377C18.3506 16.8867 18.3829 17.0357 18.4544 17.1669C18.5258 17.2981 18.6334 17.4061 18.7643 17.4781L26.1106 21.5156C26.253 21.5941 26.3601 21.724 26.4098 21.8788C26.4596 22.0336 26.4483 22.2016 26.3784 22.3484C26.3084 22.4952 26.185 22.6097 26.0334 22.6685C25.8818 22.7273 25.7135 22.726 25.5629 22.6648L15.6565 18.6248L16.0143 12.5425C16.0265 12.3356 15.956 12.1324 15.8184 11.9775C15.6807 11.8227 15.4872 11.7288 15.2803 11.7166C15.0735 11.7044 14.8703 11.7749 14.7154 11.9125C14.5605 12.0502 14.4666 12.2437 14.4545 12.4506L14.0638 19.0912C14.0542 19.254 14.0958 19.4157 14.1828 19.5537C14.2697 19.6917 14.3977 19.799 14.5487 19.8606L14.6825 19.9152L11.551 26.0749L6.18945 23.0866L12.0222 9.85522ZM5.61504 26.2754C5.56947 25.717 5.59917 25.155 5.70335 24.6045L11.0612 27.5907L9.65938 45.309H7.20425L5.61504 26.2754ZM1.5625 48.434V46.8715H48.4375L48.4385 48.434H1.5625Z" fill="white"/>
</g>
<defs>
<clipPath id="clip0_579_2597">
<rect width="50" height="50" fill="white"/>
</clipPath>
</defs>
</svg>
